<svg width="12" height="12" viewBox="0 0 12 12" fill="none" xmlns="http://www.w3.org/2000/svg">
<path fill-rule="evenodd" clip-rule="evenodd" d="M6.00488 10.7081C3.40741 10.7081 1.30176 8.6018 1.30176 6.005C1.30176 3.40821 3.40741 1.30188 6.00488 1.30188C8.60235 1.30188 10.708 3.40821 10.708 6.005C10.708 8.6018 8.60235 10.7081 6.00488 10.7081ZM6.00488 0.630005C3.0362 0.630005 0.629883 3.03532 0.629883 6.005C0.629883 8.97469 3.0362 11.38 6.00488 11.38C8.97356 11.38 11.3799 8.97469 11.3799 6.005C11.3799 3.03532 8.97356 0.630005 6.00488 0.630005ZM7.92543 4.08345C7.79307 3.95244 7.57908 3.95244 7.44672 4.08345L6.00287 5.52796L4.57983 4.10359C4.44848 3.97257 4.2355 3.97257 4.10482 4.10359C3.97347 4.2346 3.97347 4.44962 4.10482 4.58063L5.52786 6.00164L4.09475 7.4361C3.96273 7.56712 3.96273 7.78209 4.09475 7.91647C4.22711 8.04748 4.44143 8.04748 4.57379 7.91647L6.00689 6.48205L7.42993 7.90642C7.56128 8.03744 7.77426 8.03744 7.90528 7.90642C8.03663 7.77541 8.03663 7.56039 7.90528 7.42938L6.48191 6.00837L7.92543 4.56382C8.05745 4.42944 8.05745 4.21783 7.92543 4.08345Z" fill="#FF6780"/>
</svg>
