<svg width="18" height="16" viewBox="0 0 18 16" fill="none" xmlns="http://www.w3.org/2000/svg">
<path fill-rule="evenodd" clip-rule="evenodd" d="M3.3273 0.744078C3.6626 0.418642 4.20622 0.418641 4.54152 0.744074L7.11733 3.24407C7.45263 3.56951 7.45263 4.09715 7.11734 4.42259C6.78204 4.74802 6.23841 4.74803 5.90311 4.42259L4.793 3.34516V13.8333C4.793 14.2936 4.4086 14.6667 3.93441 14.6667C3.46023 14.6667 3.07582 14.2936 3.07582 13.8333V3.34518L1.96571 4.42264C1.6304 4.74808 1.08678 4.74808 0.751475 4.42264C0.416175 4.0972 0.416175 3.56957 0.751475 3.24413L3.3273 0.744078ZM14.0657 1.33333C14.5399 1.33333 14.9243 1.70643 14.9243 2.16667V12.6548L16.0343 11.5775C16.3696 11.2521 16.9132 11.2521 17.2485 11.5775C17.5838 11.9029 17.5838 12.4306 17.2485 12.756L14.6728 15.2559C14.3375 15.5814 13.7939 15.5814 13.4586 15.2559L10.8828 12.756C10.5475 12.4306 10.5475 11.9029 10.8828 11.5775C11.2181 11.2521 11.7618 11.2521 12.0971 11.5775L13.2071 12.6549V2.16667C13.2071 1.70643 13.5915 1.33333 14.0657 1.33333Z" fill="white"/>
</svg>
