<svg width="18" height="16" viewBox="0 0 18 16" fill="none" xmlns="http://www.w3.org/2000/svg">
<path d="M14.8332 0.5H3.1665C1.988 0.5 1.39874 0.5 1.03262 0.8435C0.666504 1.187 0.666504 1.73985 0.666504 2.84555V3.4204C0.666504 4.28527 0.666504 4.7177 0.882837 5.07618C1.09917 5.43467 1.4944 5.65715 2.28485 6.10212L4.71237 7.46867C5.24272 7.76717 5.5079 7.9165 5.69776 8.08133C6.09316 8.42458 6.33657 8.82792 6.44687 9.32267C6.49984 9.56017 6.49984 9.83817 6.49984 10.3941V12.6187C6.49984 13.3767 6.49984 13.7556 6.70977 14.0511C6.91971 14.3465 7.29257 14.4922 8.03834 14.7838C9.60384 15.3958 10.3866 15.7018 10.9433 15.3537C11.4998 15.0055 11.4998 14.2099 11.4998 12.6187V10.3941C11.4998 9.83817 11.4998 9.56017 11.5528 9.32267C11.6631 8.82792 11.9065 8.42458 12.3019 8.08133C12.4918 7.9165 12.7569 7.76717 13.2873 7.46867L15.7148 6.10212C16.5053 5.65715 16.9005 5.43467 17.1168 5.07618C17.3332 4.7177 17.3332 4.28527 17.3332 3.4204V2.84555C17.3332 1.73985 17.3332 1.187 16.9671 0.8435C16.6009 0.5 16.0117 0.5 14.8332 0.5Z" fill="white"/>
</svg>
