<svg width="12" height="12" viewBox="0 0 12 12" fill="none" xmlns="http://www.w3.org/2000/svg">
<g clip-path="url(#clip0_2048_1885)">
<path fill-rule="evenodd" clip-rule="evenodd" d="M6 1.375C3.44568 1.375 1.375 3.44568 1.375 6C1.375 8.55432 3.44568 10.625 6 10.625C8.55432 10.625 10.625 8.55432 10.625 6C10.625 3.44568 8.55432 1.375 6 1.375ZM0.625 6C0.625 3.03147 3.03147 0.625 6 0.625C8.96853 0.625 11.375 3.03147 11.375 6C11.375 8.96853 8.96853 11.375 6 11.375C3.03147 11.375 0.625 8.96853 0.625 6Z" fill="#FFB958"/>
<path fill-rule="evenodd" clip-rule="evenodd" d="M6 3.625C6.20711 3.625 6.375 3.79289 6.375 4V5.84467L7.51516 6.98483C7.66161 7.13128 7.66161 7.36872 7.51516 7.51516C7.36872 7.66161 7.13128 7.66161 6.98483 7.51516L5.73483 6.26516C5.66451 6.19484 5.625 6.09946 5.625 6V4C5.625 3.79289 5.79289 3.625 6 3.625Z" fill="#FFB958"/>
</g>
<defs>
<clipPath id="clip0_2048_1885">
<rect width="12" height="12" fill="white"/>
</clipPath>
</defs>
</svg>
