<svg width="14" height="20" viewBox="0 0 14 20" fill="none" xmlns="http://www.w3.org/2000/svg">
<path d="M13.7498 7.18758L6.24978 19.0626C6.18728 19.2501 5.93728 19.3751 5.74978 19.3751C5.68728 19.3751 5.62478 19.3751 5.56228 19.3126C5.31228 19.1876 5.12478 18.9376 5.18728 18.6251L6.24978 10.6251H0.749776C0.499776 10.6251 0.312276 10.5001 0.187276 10.3126C0.0622763 10.1251 0.124776 9.87508 0.249776 9.68758L6.49978 0.937582C6.68728 0.687582 6.93728 0.625082 7.18728 0.687582C7.43728 0.750082 7.62478 1.00008 7.62478 1.25008V6.25008H13.2498C13.4998 6.25008 13.6873 6.37508 13.8123 6.56258C13.8748 6.75008 13.8748 7.00008 13.7498 7.18758Z" fill="#AE8BFF"/>
</svg>
