<svg width="20" height="20" viewBox="0 0 20 20" fill="none" xmlns="http://www.w3.org/2000/svg">
<g clip-path="url(#clip0_334_8095)">
<path d="M13.6306 7.52254L6.13064 19.3975C6.06814 19.585 5.81814 19.71 5.63064 19.71C5.56814 19.71 5.50564 19.71 5.44314 19.6475C5.19314 19.5225 5.00564 19.2725 5.06814 18.96L6.13064 10.96H0.630636C0.380636 10.96 0.193136 10.835 0.0681356 10.6475C-0.0568644 10.46 0.00563558 10.21 0.130636 10.0225L6.38064 1.27254C6.56814 1.02254 6.81814 0.960042 7.06814 1.02254C7.31814 1.08504 7.50564 1.33504 7.50564 1.58504V6.58504H13.1306C13.3806 6.58504 13.5681 6.71004 13.6931 6.89754C13.7556 7.08504 13.7556 7.33504 13.6306 7.52254Z" fill="#AE8BFF"/>
<mask id="path-2-outside-1_334_8095" maskUnits="userSpaceOnUse" x="7.5" y="6.40039" width="13" height="15" fill="black">
<rect fill="white" x="7.5" y="6.40039" width="13" height="15"/>
<path fill-rule="evenodd" clip-rule="evenodd" d="M18.2803 18.1201L14.5303 14.3701C14.2375 14.0772 13.7626 14.0772 13.4697 14.3701L9.71967 18.1201C9.4268 18.413 9.4268 18.8878 9.71967 19.1807C10.0125 19.4736 10.4874 19.4736 10.7803 19.1807L14 15.961L17.2197 19.1807C17.5126 19.4736 17.9874 19.4736 18.2803 19.1807C18.5732 18.8878 18.5732 18.413 18.2803 18.1201ZM18.2803 12.9697L14.5303 9.21967C14.2375 8.9268 13.7626 8.9268 13.4697 9.21967L9.71967 12.9697C9.4268 13.2626 9.4268 13.7374 9.71967 14.0303C10.0125 14.3232 10.4874 14.3232 10.7803 14.0303L14 10.8106L17.2197 14.0303C17.5126 14.3232 17.9874 14.3232 18.2803 14.0303C18.5732 13.7374 18.5732 13.2626 18.2803 12.9697Z"/>
</mask>
<path fill-rule="evenodd" clip-rule="evenodd" d="M18.2803 18.1201L14.5303 14.3701C14.2375 14.0772 13.7626 14.0772 13.4697 14.3701L9.71967 18.1201C9.4268 18.413 9.4268 18.8878 9.71967 19.1807C10.0125 19.4736 10.4874 19.4736 10.7803 19.1807L14 15.961L17.2197 19.1807C17.5126 19.4736 17.9874 19.4736 18.2803 19.1807C18.5732 18.8878 18.5732 18.413 18.2803 18.1201ZM18.2803 12.9697L14.5303 9.21967C14.2375 8.9268 13.7626 8.9268 13.4697 9.21967L9.71967 12.9697C9.4268 13.2626 9.4268 13.7374 9.71967 14.0303C10.0125 14.3232 10.4874 14.3232 10.7803 14.0303L14 10.8106L17.2197 14.0303C17.5126 14.3232 17.9874 14.3232 18.2803 14.0303C18.5732 13.7374 18.5732 13.2626 18.2803 12.9697Z" fill="#FFBA58"/>
<path d="M14.5303 14.3701L13.1161 15.7843L13.1161 15.7843L14.5303 14.3701ZM18.2803 18.1201L19.6946 16.7059L19.6945 16.7058L18.2803 18.1201ZM13.4697 14.3701L14.8839 15.7843L14.8839 15.7843L13.4697 14.3701ZM9.71967 18.1201L8.30546 16.7058L8.3054 16.7059L9.71967 18.1201ZM9.71967 19.1807L8.3054 20.5949L8.30542 20.5949L9.71967 19.1807ZM10.7803 19.1807L9.36611 17.7665L9.36607 17.7665L10.7803 19.1807ZM14 15.961L15.4142 14.5468L14 13.1326L12.5858 14.5468L14 15.961ZM17.2197 19.1807L15.8055 20.5949L15.8055 20.595L17.2197 19.1807ZM18.2803 19.1807L19.6945 20.595L19.6946 20.5949L18.2803 19.1807ZM14.5303 9.21967L13.1161 10.6339L13.1161 10.6339L14.5303 9.21967ZM18.2803 12.9697L19.6946 11.5555L19.6945 11.5555L18.2803 12.9697ZM13.4697 9.21967L14.8839 10.6339L14.8839 10.6339L13.4697 9.21967ZM9.71967 12.9697L8.30546 11.5555L8.30541 11.5555L9.71967 12.9697ZM9.71967 14.0303L8.30541 15.4445L8.30543 15.4445L9.71967 14.0303ZM10.7803 14.0303L9.36611 12.6161L9.36608 12.6162L10.7803 14.0303ZM14 10.8106L15.4142 9.39644L14 7.98222L12.5858 9.39644L14 10.8106ZM17.2197 14.0303L15.8055 15.4445L15.8055 15.4446L17.2197 14.0303ZM18.2803 14.0303L19.6945 15.4446L19.6946 15.4445L18.2803 14.0303ZM13.1161 15.7843L16.8661 19.5343L19.6945 16.7058L15.9445 12.9558L13.1161 15.7843ZM14.8839 15.7843C14.3957 16.2725 13.6043 16.2725 13.1161 15.7843L15.9445 12.9559C14.8706 11.8819 13.1294 11.8819 12.0555 12.9559L14.8839 15.7843ZM11.1339 19.5343L14.8839 15.7843L12.0555 12.9559L8.30546 16.7058L11.1339 19.5343ZM11.1339 17.7666C11.622 18.2547 11.622 19.0461 11.1339 19.5342L8.3054 16.7059C7.23156 17.7798 7.23156 19.5209 8.3054 20.5949L11.1339 17.7666ZM9.36607 17.7665C9.85426 17.2783 10.6457 17.2783 11.1339 17.7665L8.30542 20.5949C9.37936 21.6689 11.1206 21.6689 12.1946 20.5949L9.36607 17.7665ZM12.5858 14.5468L9.36611 17.7665L12.1945 20.5949L15.4142 17.3753L12.5858 14.5468ZM18.6339 17.7665L15.4142 14.5468L12.5858 17.3753L15.8055 20.5949L18.6339 17.7665ZM16.8661 17.7665C17.3543 17.2784 18.1457 17.2784 18.6339 17.7665L15.8055 20.595C16.8794 21.6689 18.6206 21.6689 19.6945 20.595L16.8661 17.7665ZM16.8661 19.5343C16.378 19.0461 16.378 18.2547 16.8661 17.7665L19.6946 20.5949C20.7685 19.521 20.7685 17.7798 19.6946 16.7059L16.8661 19.5343ZM13.1161 10.6339L16.8661 14.3839L19.6945 11.5555L15.9445 7.80546L13.1161 10.6339ZM14.8839 10.6339C14.3957 11.1221 13.6043 11.1221 13.1161 10.6339L15.9445 7.80546C14.8706 6.73154 13.1294 6.73154 12.0555 7.80546L14.8839 10.6339ZM11.1339 14.3839L14.8839 10.6339L12.0555 7.80546L8.30546 11.5555L11.1339 14.3839ZM11.1339 12.6162C11.622 13.1043 11.622 13.8957 11.1339 14.3838L8.30541 11.5555C7.23156 12.6294 7.23156 14.3706 8.30541 15.4445L11.1339 12.6162ZM9.36608 12.6162C9.85426 12.1279 10.6457 12.1279 11.1339 12.6162L8.30543 15.4445C9.37936 16.5185 11.1206 16.5185 12.1946 15.4445L9.36608 12.6162ZM12.5858 9.39644L9.36611 12.6161L12.1945 15.4445L15.4142 12.2249L12.5858 9.39644ZM18.6339 12.6161L15.4142 9.39644L12.5858 12.2249L15.8055 15.4445L18.6339 12.6161ZM16.8661 12.6161C17.3543 12.128 18.1457 12.128 18.6339 12.6161L15.8055 15.4446C16.8794 16.5185 18.6206 16.5185 19.6945 15.4446L16.8661 12.6161ZM16.8661 14.3839C16.378 13.8957 16.378 13.1043 16.8661 12.6161L19.6946 15.4445C20.7685 14.3706 20.7685 12.6294 19.6946 11.5555L16.8661 14.3839Z" fill="#1C1A27" mask="url(#path-2-outside-1_334_8095)"/>
</g>
<defs>
<clipPath id="clip0_334_8095">
<rect width="20" height="20" fill="white"/>
</clipPath>
</defs>
</svg>
