<svg width="41" height="41" viewBox="0 0 41 41" fill="none" xmlns="http://www.w3.org/2000/svg">
<path d="M20.4399 4.88477L20.9004 4.9248L21.2007 5.00488L21.501 5.125L21.7612 5.28516L22.0415 5.50537L22.2017 5.66553L22.3818 5.88574L22.6021 6.20605L22.8823 6.68652L23.3428 7.62744L23.583 8.12793L23.8633 8.7085L24.2637 9.5293L24.5039 10.0098L24.7241 10.4702L25.2246 11.4912L25.4448 11.9517L26.0654 13.1929L26.3057 13.5532L26.3457 13.6333L26.4258 13.6733L26.626 13.8135L26.8062 13.8936L27.1265 13.9736L30.2095 14.354L33.2925 14.7144L34.2134 14.8345L34.6738 14.9346L34.9741 15.0347L35.2944 15.1948L35.5747 15.395L35.835 15.6353L36.0151 15.8354L36.2153 16.1357L36.3755 16.4561L36.5156 16.8564L36.5757 17.1968V17.5972L36.5356 17.8774L36.4155 18.2979L36.2354 18.6782L35.9951 19.0386L35.7349 19.3789L34.0532 21.0605L33.8931 21.2007L32.6719 22.4219L32.5117 22.562L31.0503 24.0234L30.8901 24.1636L30.6299 24.4238L30.4697 24.564L30.1694 24.8643L30.0093 25.0845L29.9893 25.2246L30.0894 26.0254L30.2896 27.687L30.6099 30.2896L30.8301 31.9912L30.9302 32.772L30.9502 32.9922V33.4526L30.8701 33.8931L30.75 34.2534L30.5698 34.5938L30.3896 34.854L30.1694 35.1343L29.9292 35.3745L29.6689 35.5547L29.3687 35.7349L29.0483 35.855L28.5679 35.9751L28.4277 35.9951H27.7671L27.3667 35.895L27.0464 35.7749L26.686 35.6147L26.2456 35.3945L25.3447 34.894L24.8643 34.6338L24.5439 34.4536L23.9634 34.1333L23.4429 33.853L22.9824 33.5928L22.4619 33.3125L22.0215 33.0723L21.521 32.812L21.0806 32.5718L20.5801 32.3315L20.3999 32.2715L20.1997 32.2915L19.499 32.6519L19.1787 32.812L18.7183 33.0322L17.9976 33.4126L17.6772 33.5728L14.1738 35.3745L13.7534 35.5747L13.4531 35.6948L13.1929 35.7749L12.7925 35.835H12.2319L11.8315 35.7549L11.4912 35.6348L11.1909 35.4746L10.9307 35.2744L10.6904 35.0542L10.4702 34.7739L10.29 34.4736L10.1299 34.1133L10.0098 33.6929L9.96973 33.4126V33.0723L10.0298 32.5117L10.1299 31.811L10.29 30.75L10.4502 29.6489L10.6104 28.8281L10.7305 28.3677L10.9707 27.7271L11.271 27.1465L11.4111 26.9263L11.6313 26.606L11.9116 26.2456L12.1519 25.9854L12.5122 25.625L12.7324 25.4448L13.1128 25.1646L13.4131 24.9644L13.9736 24.644L14.314 24.4639L14.9546 24.1436L15.4951 23.8633L16.2959 23.4629L16.9565 23.1226L17.3369 22.9224L17.7974 22.7021L18.1978 22.522L18.2979 22.4219L18.2578 22.4019L17.5371 22.4819L16.3359 22.6621L14.9146 22.8623L12.8726 23.1426L12.332 23.2026L11.6714 23.2427H11.231L10.7104 23.1626L10.25 23.0625L9.70947 22.8823L9.30908 22.7021L8.88867 22.4819L8.6084 22.3018L8.22803 22.0215L7.90771 21.7812L7.5874 21.521L7.24707 21.2407L7.02686 21.0605L6.68652 20.7803L6.36621 20.52L6.16602 20.3599L5.82568 20.0796L5.54541 19.8394L5.30518 19.6191L4.98486 19.2988L4.76465 18.9985L4.62451 18.7583L4.46436 18.3979L4.38428 18.0977L4.32422 17.7173V17.437L4.38428 17.0767L4.52441 16.6162L4.68457 16.2759L4.86475 15.9956L5.08496 15.7153L5.26514 15.5352L5.56543 15.3149L5.96582 15.0947L6.38623 14.9546L6.7666 14.8745L9.46924 14.5142L12.0117 14.1938L13.0127 14.0737L13.9536 13.9336L14.2139 13.8535L14.334 13.7734L14.4541 13.6333L14.6343 13.333L14.8545 12.8726L15.395 11.7915L15.6753 11.251L15.8354 10.9307L16.0557 10.4702L16.2559 10.0898L16.416 9.74951L16.6162 9.36914L17.0166 8.56836L17.1968 8.22803L17.417 7.76758L17.8174 6.9668L17.9976 6.62646L18.1177 6.38623L18.3179 6.0459L18.5181 5.76562L18.7383 5.52539L18.8984 5.38525L19.1787 5.20508L19.519 5.04492L19.8394 4.94482L20.0796 4.90479L20.4399 4.88477Z" fill="#FFC249"/>
<path d="M20.4399 4.88477L20.9004 4.9248L21.2007 5.00488L21.501 5.125L21.7612 5.28516L22.0415 5.50537L22.2017 5.66553L22.3818 5.88574L22.6021 6.20605L22.8823 6.68652L23.3428 7.62744L23.583 8.12793L23.8633 8.7085L24.2637 9.5293L24.5039 10.0098L24.7241 10.4702L25.2246 11.4912L25.4448 11.9517L26.0654 13.1929L26.3057 13.5532L26.3457 13.6333L26.4258 13.6733L26.626 13.8135L26.8062 13.8936L27.1265 13.9736L30.2095 14.354L33.2925 14.7144L34.2134 14.8345L34.6738 14.9346L34.9741 15.0347L35.2944 15.1948L35.5747 15.395L35.835 15.6353L36.0151 15.8354L36.2153 16.1357L36.3755 16.4561L36.5156 16.8564L36.5757 17.1968V17.5972L36.5356 17.8774L36.4155 18.2979L36.2354 18.6782L35.9951 19.0386L35.7349 19.3789L34.0532 21.0605L33.8931 21.2007L32.6719 22.4219L32.5117 22.562L31.0503 24.0234L30.8901 24.1636L30.6299 24.4238L30.4697 24.564L30.1694 24.8643L30.0093 25.0845L29.9893 25.2246L30.0894 26.0254L30.2896 27.687L30.6099 30.2896L30.8301 31.9912L30.9302 32.772L30.9502 32.9922V33.4526L30.8701 33.8931L30.75 34.2534L30.5698 34.5938L30.3896 34.854L30.1694 35.1343L29.9292 35.3745L29.6689 35.5547L29.3687 35.7349L29.0483 35.855L28.5679 35.9751L28.4277 35.9951H27.7671L27.3667 35.895L27.0464 35.7749L26.686 35.6147L26.2456 35.3945L25.3447 34.894L24.8643 34.6338L24.5439 34.4536L23.9634 34.1333L23.4429 33.853L22.9824 33.5928L22.4619 33.3125L22.0215 33.0723L21.521 32.812L21.0806 32.5718L20.5801 32.3315L20.3999 32.2715L20.1997 32.2915L19.499 32.6519L19.1787 32.812L18.7183 33.0322L17.9976 33.4126L17.6772 33.5728L14.1738 35.3745L13.7534 35.5747L13.4531 35.6948L13.1929 35.7749L12.7925 35.835H12.2319L11.8315 35.7549L11.4912 35.6348L11.1909 35.4746L10.9307 35.2744L10.6904 35.0542L10.4702 34.7739L10.29 34.4736L10.1299 34.1133L10.0098 33.6929L9.96973 33.4126V33.0723L10.0298 32.5117L10.1299 31.811L10.29 30.75L10.4502 29.6489L10.6104 28.8281L10.7305 28.3677L10.9707 27.7271L11.271 27.1465L11.4111 26.9263L11.6313 26.606L11.9116 26.2456L12.1519 25.9854L12.5122 25.625L12.7324 25.4448L13.1128 25.1646L13.4131 24.9644L13.9736 24.644L14.314 24.4639L14.9546 24.1436L15.4951 23.8633L16.2959 23.4629L16.9565 23.1226L17.3369 22.9224L17.7974 22.7021L18.1978 22.522L18.2979 22.4219L18.2578 22.4019L17.5371 22.4819L16.3359 22.6621L14.9146 22.8623L12.8726 23.1426L12.332 23.2026L11.6714 23.2427H11.231L10.7104 23.1626L10.25 23.0625L9.70947 22.8823L9.30908 22.7021L8.88867 22.4819L8.6084 22.3018L8.22803 22.0215L7.90771 21.7812L7.5874 21.521L7.24707 21.2407L7.02686 21.0605L6.68652 20.7803L6.36621 20.52L6.16602 20.3599L5.82568 20.0796L5.54541 19.8394L5.30518 19.6191L4.98486 19.2988L4.76465 18.9985L4.62451 18.7583L4.46436 18.3979L4.38428 18.0977L4.32422 17.7173V17.437L4.38428 17.0767L4.52441 16.6162L4.68457 16.2759L4.86475 15.9956L5.08496 15.7153L5.26514 15.5352L5.56543 15.3149L5.96582 15.0947L6.38623 14.9546L6.7666 14.8745L9.46924 14.5142L12.0117 14.1938L13.0127 14.0737L13.9536 13.9336L14.2139 13.8535L14.334 13.7734L14.4541 13.6333L14.6343 13.333L14.8545 12.8726L15.395 11.7915L15.6753 11.251L15.8354 10.9307L16.0557 10.4702L16.2559 10.0898L16.416 9.74951L16.6162 9.36914L17.0166 8.56836L17.1968 8.22803L17.417 7.76758L17.8174 6.9668L17.9976 6.62646L18.1177 6.38623L18.3179 6.0459L18.5181 5.76562L18.7383 5.52539L18.8984 5.38525L19.1787 5.20508L19.519 5.04492L19.8394 4.94482L20.0796 4.90479L20.4399 4.88477ZM20.3198 6.50635L20.1597 6.56641L19.9795 6.70654L19.7793 6.92676L19.499 7.36719V7.40723H19.459L19.4189 7.54736H19.3789L19.3389 7.6875H19.2988L19.1787 7.94775V7.98779H19.1387L18.8584 8.56836L18.6182 9.04883L18.498 9.26904L18.478 9.38916H18.438L18.2578 9.76953L18.0977 10.0898L18.0776 10.1699H18.0376L17.9976 10.25V10.3301H17.9575L17.9175 10.4102V10.4902H17.8774L17.7173 10.8306L17.6372 10.9707L16.8765 12.4922L16.6763 12.8726L16.6162 13.0327V13.0728H16.5762L16.5562 13.1929H16.5161L16.2959 13.6533V13.6934H16.2559L16.0957 14.0137L15.9155 14.334L15.7554 14.5742V14.6143H15.7153V14.6743H15.6753L15.5952 14.8145L15.415 15.0347L15.2749 15.1548L15.0547 15.2949L14.6743 15.4351L14.1538 15.5552L13.4131 15.6753L9.88965 16.1157L8.62842 16.2959L7.72754 16.416L6.7666 16.5762L6.46631 16.6562L6.30615 16.7964L6.16602 17.0166L6.0459 17.417V17.8174L6.146 18.1377L6.28613 18.3179L6.36621 18.418L6.42627 18.5181L6.62646 18.7183L6.78662 18.8584L7.02686 19.0786L7.24707 19.2588L7.52734 19.499L7.74756 19.6792L8.00781 19.8994L8.20801 20.0596L8.46826 20.2798L9.02881 20.7202L9.36914 20.9604L9.68945 21.1606L10.1099 21.3809L10.6304 21.5811L10.9507 21.6611L11.231 21.7012H11.6914L12.272 21.6611L12.8926 21.5811L13.5532 21.481L13.8735 21.4209L16.6763 21.0205L17.437 20.9204L18.1377 20.8003L19.2588 20.6401L20.2598 20.5L20.6602 20.46H21.2607L21.481 20.54L21.6411 20.6602L21.8013 20.8403L21.9014 21.0205L22.0415 21.3809L22.0815 21.8013L22.0015 22.0215L21.8613 22.2017L21.8213 22.2817L21.7412 22.3218L21.5811 22.4619L21.2407 22.7021L20.8604 22.9424L20.3198 23.2627L20.2798 23.2827V23.3228L20.0796 23.4028V23.4429L19.9595 23.4829L19.459 23.7031L18.8784 23.9834L16.7563 25.0444L16.376 25.2446L15.8955 25.4849L15.4551 25.7251L14.9946 25.9854L14.4341 26.3057L14.374 26.3257V26.3657L14.2539 26.4058L13.8936 26.646L13.6333 26.8462L13.4331 27.0264L13.293 27.1865L13.1328 27.3667V27.4067H13.0928L13.0127 27.5469L12.9126 27.647V27.707H12.8726V27.7671H12.8325L12.7124 28.0073L12.5723 28.2476L12.3921 28.6479L12.2319 29.1484L12.1318 29.5688L11.9917 30.4297L11.8716 31.0903L11.6714 32.5518L11.6313 32.8521L11.6113 33.1123V33.4326L11.6714 33.6929L11.7915 33.873L11.9316 34.0132L12.2119 34.1733L12.5122 34.2534H12.7725L13.1528 34.1133L13.8335 33.793L14.4741 33.4727L14.8545 33.2725L15.5151 32.9321L16.5361 32.3916L17.4971 31.9111L17.9575 31.6909L18.2778 31.5308L18.8784 31.2505L19.519 30.9702L19.9995 30.8101L20.1597 30.77H20.4199L20.8003 30.8701L21.3608 31.0903L22.0815 31.4307L22.9624 31.8711L23.8433 32.3516L24.8843 32.9321L25.3447 33.1924L25.8452 33.4526L26.2856 33.6929L26.8062 33.9731L27.1865 34.1733L27.667 34.3936L28.1274 34.5537H28.2676L28.4678 34.4536L28.748 34.2534L28.9482 34.0732L29.1284 33.873L29.3086 33.5728L29.3887 33.3525V32.792L29.2485 31.811L29.1084 30.9302L29.0483 30.4897L29.0083 30.0894L28.9883 29.8491L28.9282 29.2485L28.8281 28.5479L28.7881 28.2275L28.688 27.3667L28.5679 26.2456L28.5278 25.7251V24.7441L28.5679 24.4438L28.6479 24.3037L28.8682 24.0435L29.1484 23.7432L29.4688 23.4229L29.6089 23.2627L29.7891 23.0825L29.9292 22.9224L30.4297 22.4219L30.5898 22.2817L30.8301 22.0615L30.9902 21.9214L31.1904 21.7412L31.4507 21.501L32.0312 20.9204L32.1714 20.7603L32.4717 20.4399L32.6519 20.2397L32.792 20.0996L32.9321 19.9395L33.1123 19.7593L33.2725 19.6191L34.2935 18.5981L34.4336 18.438L34.6738 18.1577L34.854 17.8774L34.9541 17.5771V17.417L34.834 17.0967L34.7139 16.8965L34.4736 16.6562L34.1934 16.5161L33.853 16.436L32.752 16.2959L31.4307 16.1357L29.6289 15.9556L28.0273 15.7754L27.0264 15.6553L26.5859 15.5752L26.0454 15.4351L25.8052 15.2749L25.645 15.1948L25.4448 15.0146L25.2646 14.7944L25.0444 14.4741L24.7441 13.9536L24.4038 13.293L24.0635 12.6123L23.8433 12.1519L23.4028 11.251L22.9424 10.3301L22.7222 9.86963L22.2417 8.90869L22.0215 8.44824L21.7812 7.98779L21.7012 7.8877L21.6011 7.7876L21.4009 7.42725L21.3809 7.36719H21.3408L21.3008 7.26709L21.1006 6.98682L20.9204 6.78662L20.7803 6.64648L20.54 6.52637L20.48 6.50635H20.3198Z" fill="#E3831B"/>
<path d="M20.3198 6.50635H20.48L20.7202 6.60645L20.9204 6.78662L21.0605 6.92676L21.3008 7.26709L21.3408 7.36719H21.3809L21.501 7.60742L21.6011 7.7876L21.7212 7.96777L21.7412 8.02783L21.6211 7.98779L21.481 7.96777H20.7202L20.3599 8.04785L20.2397 8.14795L20.0996 8.32812H20.0596L20.0195 8.42822L19.8994 8.62842L19.6992 8.98877L19.4189 9.5293L19.2588 9.82959L19.1587 10.0698L18.9785 10.4102L18.8184 10.7305L18.5981 11.1509L18.3779 11.6113L18.0576 12.252L17.7773 12.8525L17.6172 13.1929L17.417 13.5732L17.0566 14.2939L16.8564 14.6743L16.5562 15.2549L16.356 15.6152L15.9556 16.396L15.7754 16.7163L15.6353 16.8765L15.375 16.9565L14.7744 17.0366L14.374 17.1167L13.8135 17.1968L13.7334 17.2168L13.313 17.2568L13.0127 17.2969L12.5522 17.3369L12.3521 17.377L11.291 17.4971L10.4502 17.6172L10.0498 17.6572L9.62939 17.7173L8.46826 17.8774L7.98779 17.9375L7.12695 18.0576L7.02686 18.0977L6.80664 18.1377L6.74658 18.3179L6.64648 18.438L6.52637 18.5181L6.42627 18.478L6.22607 18.2578L6.12598 18.0977L6.0459 17.8174V17.417L6.18604 16.9766L6.32617 16.7764L6.46631 16.6562L6.7666 16.5762L7.86768 16.396L9.48926 16.1758L10.3301 16.0557L13.0928 15.7153L13.8135 15.6152L14.4341 15.4951L14.7344 15.415L15.0547 15.2949L15.355 15.0947L15.5552 14.8745L15.6553 14.7344L15.6753 14.6743H15.7153V14.6143H15.7554L15.7954 14.5142L15.9956 14.1938L16.2358 13.7534L16.2559 13.6934H16.2959L16.3359 13.5732L16.5161 13.1929H16.5562L16.5762 13.0728H16.6162L16.6562 12.9126L16.8164 12.6123L17.8774 10.4902H17.9175L17.9375 10.3701L17.9575 10.3301H17.9976L18.0176 10.21L18.0376 10.1699H18.0776L18.1377 9.98975L18.3579 9.56934L18.438 9.38916H18.478L18.5181 9.229L18.8584 8.56836L19.0786 8.12793L19.1387 7.98779H19.1787L19.2188 7.86768L19.2988 7.6875H19.3389L19.3789 7.54736H19.4189L19.459 7.40723H19.499L19.5391 7.30713L19.7393 6.98682L19.9194 6.7666L20.0996 6.60645L20.2397 6.52637L20.3198 6.50635Z" fill="#FFE5B3"/>
<path d="M28.728 27.9272H28.748L28.8281 28.5479L28.8882 28.9883L28.9482 29.4688L29.0083 29.9893L29.0283 30.2695L29.0684 30.6699L29.1284 31.0703L29.3086 32.2114L29.3887 32.792V33.3525L29.3086 33.5728L29.1284 33.873L28.8882 34.1333L28.708 34.2935L28.3677 34.5137L28.2676 34.5537H28.1274V34.5337L28.2275 34.5137L28.2476 34.4536L28.0874 34.4736V34.4136L28.0073 34.3735L27.7471 34.2534H27.627L27.3867 34.1333V34.0933L26.8662 33.833L26.7461 33.7529L26.5059 33.6328L26.1655 33.4526L26.0654 33.3926L25.9453 33.3726L25.8853 33.3125V33.2725L25.7852 33.2925L25.585 33.1924V33.1523L25.4648 33.1123L25.4248 33.0723L25.4448 33.0322L25.3647 32.9922L25.0645 32.812L24.8843 32.6719L24.644 32.5117L24.5239 32.4517L24.5039 32.3716H24.4639L24.4238 32.2715V32.1514H24.3838L24.3438 31.9912L24.2637 31.9512V31.8911H24.3037V31.771V31.7109L24.2036 31.6309L24.1836 31.5908L24.0835 31.5708L24.0034 31.4507L23.8032 31.3706V31.3105L23.6831 31.2705V31.2305H23.583L23.543 31.1504L23.6431 31.1704L23.603 31.1304H23.543L23.5229 31.0503L23.563 31.0103L23.5229 30.9502H23.3628L23.3228 30.8901L23.4028 30.8301L23.4829 30.79L23.583 30.8101L23.7632 30.8901L23.8232 30.9502V31.0503H23.8833V31.0103L23.9634 30.9902L24.0435 31.0503L24.0835 31.1104L24.1235 31.1304V31.0103L24.1636 30.9102L24.0234 30.8701L23.9634 30.8501V30.79L24.0635 30.75H24.1436L24.1636 30.6899L24.2236 30.6499L24.2036 30.5498L24.2437 30.5098H24.3237V30.5498H24.3638L24.3838 30.6499L24.4639 30.5698V30.4697L24.4438 30.4297L24.4639 30.3896H24.564V30.3496H24.644V30.3896L24.7041 30.3696L24.7441 30.4497L24.7642 30.4697L24.7842 30.3896L24.7441 30.3696V30.2695H24.7041V30.2295H24.6641L24.644 30.1694H24.7241V30.2095L24.7842 30.2295V30.2695L24.8843 30.2495L24.9243 30.2695L24.9043 30.1294L25.0645 30.2095L25.1445 30.1694L25.2446 30.1494L25.3247 30.1094L25.3447 30.0693L25.4248 30.1094V30.1694L25.5649 30.1494L25.665 30.1094L25.7451 30.0693L25.8052 30.1094V30.1494L25.9854 30.1094V30.1494L26.0654 30.1294V30.0894H26.0254V30.0493H26.0654L26.0854 29.9692L26.3257 29.9092V29.9492H26.3657V29.8892L26.3057 29.8691L26.2656 29.769L26.3257 29.6089L26.4458 29.5288L26.4858 29.4888L26.4658 29.4487L26.4858 29.3486L26.5859 29.3086L26.626 29.3286L26.646 29.3887L26.7261 29.4287L26.7661 29.5288L26.8862 29.4888L26.9463 29.5288L26.9863 29.4688L26.9463 29.3887L26.9062 29.3687V29.3286L27.0464 29.3086L27.1465 29.3486V29.1885L27.2666 29.1484L27.4067 29.1084L27.5469 29.1484L27.6069 29.1885V29.2485L27.707 29.2886L27.7471 29.3887L27.9072 29.4287L27.9873 29.3687L28.0674 29.4087L28.1074 29.5288L28.2275 29.6689L28.1875 29.689V29.8291H28.2275L28.2676 29.9292L28.3276 29.9692V30.1094L28.3076 30.2095L28.3276 30.2695L28.3677 30.2896L28.4277 30.4897L28.5479 30.6899L28.668 30.71V30.75H28.708V30.79H28.748V30.8301H28.7881L28.8081 30.9502L28.9883 30.9702V30.6699L28.9683 30.5698V30.3296L28.9482 30.1494L28.9282 30.0493L28.8882 29.9092L28.8481 29.749L28.8281 29.0283L28.7681 28.708L28.728 28.2075L28.708 28.0273L28.728 27.9272Z" fill="#FFB53D"/>
<path d="M20.2798 23.2827L20.3599 23.3027L20.2798 23.4429L20.2197 23.4829V23.5229H20.6401L21.1006 23.4629L21.3208 23.4429H22.1016L22.1816 23.4629L22.3218 23.623L22.3818 23.6831V23.7832L22.1616 23.9834L21.9014 24.1636L21.6211 24.3237L21.0405 24.644L20.46 24.9243L20.0396 25.1445L19.7192 25.3047L19.3789 25.4849L19.0586 25.645L18.5181 25.9253L18.1777 26.1055L17.7573 26.3057L17.377 26.4858L17.0366 26.666L15.2349 27.5669L14.7544 27.8472L14.4141 28.0674L14.0537 28.3276L13.8335 28.5078L13.5732 28.748L13.4131 28.9282L13.1528 29.2886L12.7925 29.8892L12.6323 30.2095L12.4722 30.5498L12.3521 30.8901L12.2119 31.3706L12.1118 31.9712L12.0518 32.3916L11.9517 33.3726L11.9116 33.7129L11.9517 33.873L12.0918 34.0332L12.1719 34.1133L12.0718 34.0933L11.8916 33.9731L11.7515 33.833L11.6514 33.6328L11.6113 33.4326V33.1123L11.6514 32.6919L11.8315 31.3706L11.9517 30.6299L12.0518 30.0693L12.1719 29.3687L12.332 28.8281L12.4521 28.5078L12.6123 28.1875L12.8125 27.8271L12.8325 27.7671H12.8726V27.707H12.9126V27.647L13.0127 27.5469L13.0928 27.4067H13.1328L13.1729 27.3267L13.353 27.1265L13.5732 26.8862L13.9736 26.5859L14.334 26.3657H14.374V26.3257L14.6543 26.1855L15.1348 25.9053L16.0156 25.4248L16.7363 25.0645L17.1167 24.8643L19.3188 23.7632L20.0396 23.4429H20.0796V23.4028L20.2397 23.3228H20.2798V23.2827Z" fill="#FFE5B3"/>
<path d="M25.9253 15.415L26.7861 15.6152L27.5068 15.7153L29.2886 15.9155L31.5908 16.1558L32.9121 16.3159L33.853 16.436L34.1934 16.5161L34.4736 16.6562L34.7339 16.9165L34.894 17.2368L34.9541 17.417V17.5771L34.874 17.7974L34.7739 17.8174L34.7539 17.7573L33.9932 17.6372L33.2524 17.5771L32.3716 17.5171L30.8501 17.3569L29.4888 17.1968L28.5679 17.0566L28.0073 16.9565L27.5669 16.8564L27.2666 16.7563L26.9663 16.5962L26.626 16.2559L26.4658 16.1157L26.2856 15.9155L26.0854 15.6753L25.9253 15.4351V15.415Z" fill="#FFE6B4"/>
<path d="M21.6812 7.8877L21.7812 7.98779L21.8613 8.12793L21.9214 8.32812L21.9414 8.38818L21.9214 8.42822L21.9814 8.7085L21.9414 8.72852L21.9014 8.7085L21.8813 8.80859L21.8213 8.92871V9.08887L21.7412 9.10889L21.501 8.98877L21.3809 8.94873V8.98877L21.3208 9.00879L21.2007 8.96875L21.1807 9.06885L21.0405 9.04883L21.0605 9.229L21.0005 9.24902V9.28906H20.9604L20.9404 9.40918L20.8203 9.48926L20.7803 9.54932H20.7202L20.6802 9.64941L20.6201 9.76953L20.5801 9.78955L20.52 10.0298H20.46L20.3599 10.0698L20.2397 10.27L20.2197 10.3301L20.1196 10.3501L20.0796 10.4502L20.0195 10.4702L19.9995 10.5103H19.9595L19.9194 10.6304L19.8594 10.6904L19.7593 10.7305L19.6992 10.8506L19.6392 10.8906L19.5791 10.9907L19.459 11.0708L19.2988 11.1709L19.1987 11.251L19.1787 11.291H19.1387L19.0986 11.3711L18.9785 11.5713H18.9385L18.8984 11.6714L18.7983 11.7715L18.5981 12.0918L18.458 12.2119H18.418V12.252L18.3179 12.272L18.2778 12.4121L18.1978 12.4321L18.1777 12.4922L18.1577 12.4521V12.3921L18.0576 12.5522H18.0176L17.9575 12.6924L17.9375 12.8325L17.7773 13.1128L17.6772 13.2129L17.6372 13.4131L17.5571 13.5332L17.437 13.6733L17.377 13.8335L17.2969 13.9937L17.2769 14.1138L17.0566 14.4941L16.7964 15.0146L16.6562 15.1948L16.5562 15.395L16.4761 15.5151H16.436L16.396 15.6152L16.2959 15.8154L16.2158 15.9556L16.1958 16.0356H16.1558L16.1357 16.1558L15.9556 16.5361L15.8555 16.6963L15.7954 16.7163V16.7764H15.7554L15.7153 16.8564L15.5952 16.9365L15.4751 16.9766L14.8545 17.0566L14.5342 17.1167L14.1738 17.1768L13.333 17.2969L12.0718 17.437L11.8115 17.4771L11.231 17.5371L11.1709 17.5571L10.6504 17.6172H10.4502V17.5972L11.4512 17.457L11.9917 17.397L12.4722 17.3369L12.7524 17.2969L13.1729 17.2568L13.4531 17.2168L13.7334 17.1968L14.6943 17.0366L14.8745 16.9966L15.375 16.9365L15.6353 16.8564L15.7954 16.6562L16.1357 15.9956L16.416 15.4551L16.6162 15.0947L16.9565 14.4341L17.2568 13.8535L17.457 13.4731L17.6973 12.9727L17.9575 12.4321L18.1777 11.9717L18.7183 10.8906L18.9385 10.4302L19.0386 10.27L19.2188 9.88965L19.6191 9.08887L19.8193 8.72852L19.9795 8.44824L20.0596 8.32812H20.0996L20.1396 8.24805L20.2598 8.10791L20.3599 8.02783L20.7202 7.94775H21.481L21.6611 7.98779L21.7212 8.00781L21.6812 7.8877Z" fill="#FFD45D"/>
<path d="M20.1597 30.75H20.4199L20.8003 30.8501L21.3608 31.0703L22.0815 31.4106L22.9624 31.8511L23.8433 32.3315L24.8843 32.9121L25.3447 33.1724L25.8452 33.4326L26.2856 33.6729L26.8062 33.9531L27.1865 34.1533L27.667 34.3735L28.1274 34.5337L28.2476 34.5737V34.6538L28.0674 34.6738L27.707 34.5737L27.5869 34.5337L27.3867 34.4937L27.0664 34.3335L26.7461 34.1934L26.646 34.1533V34.1133L26.5459 34.0933L26.2256 33.9331L25.8452 33.7529L25.665 33.6929L25.4648 33.5928L25.2446 33.5127L25.1445 33.4526L25.0044 33.4126L24.8042 33.2925V33.2524L24.604 33.2124L24.564 33.1924V33.1523L24.4839 33.1323L24.4038 33.0723L24.2437 33.0122L24.1035 32.9722L24.1235 32.8921L23.9834 32.8721L23.8032 32.7319L23.563 32.6118L23.4028 32.4917L23.2427 32.3916L23.0625 32.2915L22.9023 32.1914L22.7021 32.0513L22.6221 32.0112V31.9712L22.542 31.9512L22.3618 31.8511L22.1416 31.7109L21.9214 31.5908L21.8613 31.5308H21.8213L21.7412 31.4307L21.521 31.3306V31.2905L21.4409 31.2705L21.3408 31.2305L21.0405 31.1304L20.6802 31.0503L20.3799 31.0303L20.2798 31.0103H19.9995L19.519 31.1304L19.2188 31.2505L18.9585 31.3706L18.7183 31.4507H18.6582V31.4907L18.458 31.5508L18.3179 31.6108H18.1377L18.1978 31.5508L18.6982 31.3105L19.0986 31.1304L19.519 30.9502L19.9995 30.79L20.1597 30.75Z" fill="#D97216"/>
<path d="M29.2085 32.752L29.3086 32.792L29.3687 32.8721L29.3887 32.9922V33.3525L29.3086 33.5728L29.2285 33.6528L29.1484 33.6128V33.2725L29.1885 33.0122V32.792L29.2085 32.752Z" fill="#FFC148"/>
<path d="M7.66748 17.9575H7.82764V17.9775L7.22705 18.0776L7.02686 18.1377L6.9668 18.3379L6.88672 18.438L6.78662 18.5381L6.7666 18.6382L6.58643 18.5981L6.48633 18.5181L6.68652 18.3779L6.74658 18.2979L6.80664 18.1377L6.88672 18.0977L7.28711 18.0176L7.66748 17.9575Z" fill="#FFD55E"/>
<path d="M11.7515 35.7148H13.313L13.2529 35.7549L12.9526 35.8149L12.7925 35.835H12.2319L11.8315 35.7549L11.7515 35.7148Z" fill="#FFE6B4"/>
<path d="M21.0605 22.8223L21.1206 22.8423L20.9805 22.9624L20.9604 23.0024H20.9204L20.9004 23.0625L20.7002 23.1826L20.5601 23.3027L20.48 23.4028L20.4199 23.4429L20.3999 23.5229L20.4399 23.543H20.2197V23.4629L20.3198 23.3628V23.2827L20.4199 23.2026L21.0005 22.8623L21.0605 22.8223Z" fill="#FFD25C"/>
<path d="M29.5688 23.2827H29.6089L29.5688 23.3628L29.3687 23.563L29.2686 23.7031H29.2285L29.1885 23.7832L29.0283 23.9434L28.8882 24.1636H28.8481V24.2036H28.8081L28.7681 24.2837L28.708 24.3438L28.6279 24.3638L28.6479 24.2837L28.8281 24.0635L29.1284 23.7432L29.4487 23.4229L29.5688 23.2827Z" fill="#DA7416"/>
<path d="M12.0117 35.7749H13.0527V35.7949L12.7925 35.835H12.2319L12.0117 35.7949V35.7749Z" fill="#D97317"/>
<path d="M22.0215 21.8013H22.0615V21.9414L21.9214 22.1616L21.8213 22.2817L21.6812 22.4019H21.6211L21.6611 22.3218L21.7612 22.2217L21.8813 22.0815L21.9214 21.9814L22.0215 21.8013Z" fill="#DA7316"/>
<path d="M22.2817 23.8433L22.3218 23.8633L22.3018 23.9033H22.2617V23.9434L22.2017 23.9834L22.1216 24.1235L22.0015 24.1836L21.8613 24.2236L21.7012 24.3237L21.5811 24.3438L21.6611 24.2837L21.9414 24.1235L22.2017 23.9233L22.2817 23.8433Z" fill="#FFD55E"/>
<path d="M34.5137 17.7173L34.7139 17.7373L34.7739 17.7974H34.874V17.8374L34.7739 17.9375L34.6738 17.9175L34.6338 17.7773L34.5137 17.7373V17.7173Z" fill="#FFD45D"/>
<path d="M29.5688 23.2827H29.6089L29.5688 23.3628L29.3687 23.563L29.3286 23.543L29.5688 23.2827Z" fill="#DC7717"/>
<path d="M25.7852 15.3149L25.8853 15.335L26.0054 15.415L25.9453 15.4351V15.4951L25.7852 15.335V15.3149Z" fill="#FFCF5A"/>
<path d="M30.8301 22.0415L30.8901 22.0615L30.6699 22.2617H30.6299V22.2217L30.79 22.0815L30.8301 22.0415Z" fill="#DD7818"/>
</svg>
