<svg width="62" height="87" viewBox="0 0 62 87" fill="none" xmlns="http://www.w3.org/2000/svg">
<path d="M57.819 34.6414L26.0353 84.9656C25.7704 85.7602 24.7109 86.29 23.9164 86.29C23.6515 86.29 23.3866 86.29 23.1218 86.0251C22.0623 85.4954 21.2677 84.4359 21.5326 83.1116V77L26.0353 49.209H2.72721C1.66776 49.209 0.873163 48.6792 0.343434 47.8846C-0.186295 47.09 0.0546923 42.5 0.0547002 40L0.343434 39L27.0947 8.15499C27.8893 7.09553 28.9488 6.83067 30.0082 7.09553C31.0677 7.3604 31.8623 8.41985 31.8623 9.47931V30.6685L57.819 25C58.8784 25 58.5255 28.5072 58.5547 30C58.5839 31.4928 58.3487 33.8468 57.819 34.6414Z" fill="#7C5ACA"/>
<path d="M57.819 27.6414L26.0353 77.9656C25.7704 78.7602 24.711 79.29 23.9164 79.29C23.6515 79.29 23.3866 79.29 23.1218 79.0251C22.0623 78.4954 21.2677 77.4359 21.5326 76.1116L26.0353 42.209H2.72721C1.66776 42.209 0.873163 41.6792 0.343435 40.8846C-0.186294 40.09 0.0785701 39.0306 0.608299 38.236L27.0947 1.15499C27.8893 0.0955312 28.9488 -0.169333 30.0082 0.0955312C31.0677 0.360396 31.8623 1.41985 31.8623 2.47931V23.6685H55.7001C56.7595 23.6685 57.5541 24.1982 58.0839 24.9928C58.3487 25.7874 58.3487 26.8468 57.819 27.6414Z" fill="#AE8BFF"/>
<mask id="mask0_446_5211" style="mask-type:alpha" maskUnits="userSpaceOnUse" x="0" y="0" width="59" height="87">
<path fill-rule="evenodd" clip-rule="evenodd" d="M58.1246 25.1245C58.6508 25.6175 58.6044 27.476 58.5687 28.905C58.5583 29.3212 58.5488 29.701 58.5547 30C58.5839 31.4928 58.3487 33.8468 57.819 34.6414L26.0353 84.9656C25.7704 85.7602 24.7109 86.29 23.9164 86.29C23.6515 86.29 23.3866 86.29 23.1218 86.0251C22.0623 85.4954 21.2677 84.4359 21.5326 83.1116V77.114C21.4667 76.8023 21.4616 76.4664 21.5326 76.1116L25.1056 49.209H2.72721C1.66776 49.209 0.873163 48.6792 0.343434 47.8846C-0.0674565 47.2683 -0.0146446 44.3684 0.0297336 41.9316C0.0425688 41.2269 0.0546984 40.5608 0.0547002 40L0.057232 39.9912C0.0275133 39.3918 0.260974 38.757 0.608299 38.236L27.0947 1.15499C27.8893 0.0955312 28.9488 -0.169333 30.0082 0.0955312C31.0677 0.360395 31.8623 1.41985 31.8623 2.47931V9.47931V23.6685H55.7001C56.7595 23.6685 57.5541 24.1982 58.0839 24.9928C58.0982 25.0359 58.1118 25.0799 58.1246 25.1245Z" fill="#AE8BFF"/>
</mask>
<g mask="url(#mask0_446_5211)">
<path d="M55.0547 9.18524C40.6547 47.9852 5.05469 44.3519 -10.9453 37.6852C-10.9453 46.0187 -8.94531 66.0855 -0.945312 79.6855C9.05469 96.6855 33.5547 85.1852 49.5547 78.6852C65.5547 72.1852 73.0547 -39.3148 55.0547 9.18524Z" fill="url(#paint0_linear_446_5211)" style="mix-blend-mode:soft-light"/>
<g opacity="0.34">
<path d="M29.0547 4.99978C24.0547 9.99955 15.0547 21.9993 11.5547 29.9994C8.05469 37.9994 25.0547 25.4997 27.0547 22.9997C29.0547 20.4997 30.8225 3.23205 29.0547 4.99978Z" fill="url(#paint1_linear_446_5211)" style="mix-blend-mode:screen"/>
</g>
</g>
<path fill-rule="evenodd" clip-rule="evenodd" d="M61.5118 83.5552L53.1785 75.2219C52.5276 74.571 51.4723 74.571 50.8215 75.2219L42.4881 83.5552C41.8373 84.2061 41.8373 85.2614 42.4881 85.9122C43.139 86.5631 44.1943 86.5631 44.8451 85.9122L52 78.7574L59.1548 85.9122C59.8057 86.5631 60.861 86.5631 61.5118 85.9122C62.1627 85.2614 62.1627 84.2061 61.5118 83.5552ZM61.5118 72.1098L53.1785 63.7765C52.5276 63.1257 51.4723 63.1257 50.8215 63.7765L42.4881 72.1098C41.8373 72.7607 41.8373 73.816 42.4881 74.4669C43.139 75.1178 44.1943 75.1178 44.8451 74.4669L52 67.312L59.1548 74.4669C59.8057 75.1178 60.861 75.1178 61.5118 74.4669C62.1627 73.816 62.1627 72.7607 61.5118 72.1098Z" fill="#FFBA58"/>
<defs>
<linearGradient id="paint0_linear_446_5211" x1="52.8832" y1="71.6337" x2="38.9506" y2="12.4369" gradientUnits="userSpaceOnUse">
<stop stop-color="#272434"/>
<stop offset="0.91515" stop-color="#272434" stop-opacity="0"/>
</linearGradient>
<linearGradient id="paint1_linear_446_5211" x1="20.5357" y1="1.99483" x2="35.3323" y2="16.6546" gradientUnits="userSpaceOnUse">
<stop stop-color="white"/>
<stop offset="1" stop-color="white" stop-opacity="0"/>
</linearGradient>
</defs>
</svg>
