<svg width="82" height="76" viewBox="0 0 82 76" fill="none" xmlns="http://www.w3.org/2000/svg">
<path d="M0.244296 29.7959C0.244296 49.5694 16.523 60.1066 28.4393 69.5381C32.6443 72.8663 36.6943 75.9997 40.7443 75.9997C44.7943 75.9997 48.8443 72.8663 53.0494 69.5381C64.9657 60.1066 81.2443 49.5694 81.2443 29.7959C82.7441 -0.500126 58.9685 -4.00088 40.7443 15.0093C22.5199 -4.00088 -2.75583 0.499996 0.244296 29.7959Z" fill="#7C5ACA"/>
<path d="M0.244141 23.7962C0.244141 43.5697 16.5228 54.1068 28.4391 63.5384C32.6441 66.8666 36.6941 70 40.7441 70C44.7941 70 48.8441 66.8666 53.0493 63.5384C64.9656 54.1068 81.2441 43.5697 81.2441 23.7962C81.2441 4.02249 58.9683 -10.0006 40.7441 9.00956C22.5198 -10.0006 0.244141 4.02249 0.244141 23.7962Z" fill="#AE8BFF"/>
<mask id="mask0_446_5183" style="mask-type:alpha" maskUnits="userSpaceOnUse" x="0" y="0" width="82" height="76">
<path fill-rule="evenodd" clip-rule="evenodd" d="M0.392317 27.0182C0.294725 25.972 0.244141 24.8984 0.244141 23.7962C0.244141 4.02249 22.5198 -10.0006 40.7441 9.00956C58.9683 -10.0006 81.2441 4.02249 81.2441 23.7962C81.2441 24.8984 81.1936 25.972 81.096 27.0182C81.1938 27.9293 81.2441 28.8562 81.2441 29.7962C81.2441 47.708 67.8866 58.0408 56.5139 66.8382C55.3318 67.7526 54.1712 68.6504 53.0493 69.5384C48.8441 72.8666 44.7941 76 40.7441 76C36.6941 76 32.6441 72.8666 28.4391 69.5384C27.3172 68.6504 26.1565 67.7525 24.9744 66.8381C13.6017 58.0407 0.244141 47.7079 0.244141 29.7962C0.244141 28.8562 0.294476 27.9293 0.392317 27.0182Z" fill="#AE8BFF"/>
</mask>
<g mask="url(#mask0_446_5183)">
<path d="M75.2441 -2.87545C62.4441 50.7245 16.5775 49.4579 -4.75586 42.1245C-0.922526 54.958 10.8441 82.225 27.2441 88.625C47.7441 96.625 54.2441 86.6245 77.7441 73.1245C101.244 59.6245 91.2441 -69.8755 75.2441 -2.87545Z" fill="url(#paint0_linear_446_5183)" style="mix-blend-mode:soft-light"/>
</g>
<g opacity="0.34">
<path d="M22.6202 6.60946C11.4961 8.71825 6.1202 19.3095 10.1202 32.1095C15.1202 48.1095 33.7443 4.50067 22.6202 6.60946Z" fill="url(#paint1_linear_446_5183)" style="mix-blend-mode:screen"/>
</g>
<defs>
<linearGradient id="paint0_linear_446_5183" x1="75.7441" y1="70.5" x2="58.7441" y2="-2.99999" gradientUnits="userSpaceOnUse">
<stop stop-color="#272434"/>
<stop offset="0.91515" stop-color="#272434" stop-opacity="0"/>
</linearGradient>
<linearGradient id="paint1_linear_446_5183" x1="18.6201" y1="1.10937" x2="36.7154" y2="17.0008" gradientUnits="userSpaceOnUse">
<stop stop-color="white"/>
<stop offset="1" stop-color="white" stop-opacity="0"/>
</linearGradient>
</defs>
</svg>
