<svg width="60" height="87" viewBox="0 0 60 87" fill="none" xmlns="http://www.w3.org/2000/svg">
<path d="M58.7643 34.6414L26.9806 84.9656C26.7157 85.7602 25.6563 86.29 24.8617 86.29C24.5968 86.29 24.3319 86.29 24.0671 86.0251C23.0076 85.4954 22.213 84.4359 22.4779 83.1116V77L26.9806 49.209H3.67252C2.61307 49.209 1.81847 48.6792 1.28875 47.8846C0.759018 47.09 1 42.5 1.00001 40L1.28875 39L28.04 8.15499C28.8346 7.09553 29.8941 6.83067 30.9535 7.09553C32.013 7.3604 32.8076 8.41985 32.8076 9.47931V30.6685L58.7643 25C59.8238 25 59.4708 28.5072 59.5 30C59.5292 31.4928 59.294 33.8468 58.7643 34.6414Z" fill="#7C5ACA"/>
<path d="M58.7643 27.6414L26.9806 77.9656C26.7157 78.7602 25.6563 79.29 24.8617 79.29C24.5968 79.29 24.3319 79.29 24.0671 79.0251C23.0076 78.4954 22.213 77.4359 22.4779 76.1116L26.9806 42.209H3.67253C2.61307 42.209 1.81848 41.6792 1.28875 40.8846C0.759019 40.09 1.02388 39.0306 1.55361 38.236L28.04 1.15499C28.8346 0.0955312 29.8941 -0.169333 30.9535 0.0955312C32.013 0.360396 32.8076 1.41985 32.8076 2.47931V23.6685H56.6454C57.7048 23.6685 58.4994 24.1982 59.0292 24.9928C59.294 25.7874 59.294 26.8468 58.7643 27.6414Z" fill="#AE8BFF"/>
<mask id="mask0_446_5196" style="mask-type:alpha" maskUnits="userSpaceOnUse" x="0" y="0" width="60" height="87">
<path fill-rule="evenodd" clip-rule="evenodd" d="M59.0699 25.1245C59.5961 25.6175 59.5497 27.476 59.514 28.905C59.5036 29.3212 59.4942 29.701 59.5 30C59.5292 31.4928 59.294 33.8468 58.7643 34.6414L26.9806 84.9656C26.7157 85.7602 25.6563 86.29 24.8617 86.29C24.5968 86.29 24.3319 86.29 24.0671 86.0251C23.0076 85.4954 22.213 84.4359 22.4779 83.1116V77.114C22.412 76.8023 22.4069 76.4664 22.4779 76.1116L26.0509 49.209H3.67252C2.61307 49.209 1.81848 48.6792 1.28875 47.8846C0.877856 47.2683 0.930668 44.3684 0.975046 41.9316C0.987881 41.2269 1.00001 40.5608 1.00001 40L1.00254 39.9912C0.972826 39.3918 1.20629 38.757 1.55361 38.236L28.04 1.15499C28.8346 0.0955312 29.8941 -0.169333 30.9535 0.0955312C32.013 0.360395 32.8076 1.41985 32.8076 2.47931V9.47931V23.6685H56.6454C57.7048 23.6685 58.4994 24.1982 59.0292 24.9928C59.0436 25.0359 59.0572 25.0799 59.0699 25.1245Z" fill="#AE8BFF"/>
</mask>
<g mask="url(#mask0_446_5196)">
<path d="M56 9.18524C41.6 47.9852 6 44.3519 -10 37.6852C-10 46.0187 -8 66.0855 0 79.6855C10 96.6855 34.5 85.1852 50.5 78.6852C66.5 72.1852 74 -39.3148 56 9.18524Z" fill="url(#paint0_linear_446_5196)" style="mix-blend-mode:soft-light"/>
<g opacity="0.34">
<path d="M30 4.99978C25 9.99955 16 21.9993 12.5 29.9994C9 37.9994 26 25.4997 28 22.9997C30 20.4997 31.7678 3.23205 30 4.99978Z" fill="url(#paint1_linear_446_5196)" style="mix-blend-mode:screen"/>
</g>
</g>
<defs>
<linearGradient id="paint0_linear_446_5196" x1="53.8285" y1="71.6337" x2="39.8959" y2="12.4369" gradientUnits="userSpaceOnUse">
<stop stop-color="#272434"/>
<stop offset="0.91515" stop-color="#272434" stop-opacity="0"/>
</linearGradient>
<linearGradient id="paint1_linear_446_5196" x1="21.481" y1="1.99483" x2="36.2776" y2="16.6546" gradientUnits="userSpaceOnUse">
<stop stop-color="white"/>
<stop offset="1" stop-color="white" stop-opacity="0"/>
</linearGradient>
</defs>
</svg>
