<svg width="100" height="112" viewBox="0 0 100 112" fill="none" xmlns="http://www.w3.org/2000/svg">
<path d="M2.656 89V66.6H13.6C16.416 66.6 18.528 67.1333 19.936 68.2C21.3653 69.2667 22.08 70.6747 22.08 72.424C22.08 73.5973 21.792 74.6213 21.216 75.496C20.64 76.3493 19.8507 77.0107 18.848 77.48C17.8453 77.9493 16.6933 78.184 15.392 78.184L16 76.872C17.408 76.872 18.656 77.1067 19.744 77.576C20.832 78.024 21.6747 78.696 22.272 79.592C22.8907 80.488 23.2 81.5867 23.2 82.888C23.2 84.808 22.4427 86.312 20.928 87.4C19.4133 88.4667 17.184 89 14.24 89H2.656ZM7.808 85.096H13.856C15.2 85.096 16.2133 84.8827 16.896 84.456C17.6 84.008 17.952 83.304 17.952 82.344C17.952 81.4053 17.6 80.712 16.896 80.264C16.2133 79.7947 15.2 79.56 13.856 79.56H7.424V75.784H12.96C14.2187 75.784 15.1787 75.5707 15.84 75.144C16.5227 74.696 16.864 74.024 16.864 73.128C16.864 72.2533 16.5227 71.6027 15.84 71.176C15.1787 70.728 14.2187 70.504 12.96 70.504H7.808V85.096ZM27.1248 89V66.6H36.8208C38.8261 66.6 40.5541 66.9307 42.0048 67.592C43.4554 68.232 44.5754 69.16 45.3648 70.376C46.1541 71.592 46.5488 73.0427 46.5488 74.728C46.5488 76.392 46.1541 77.832 45.3648 79.048C44.5754 80.2427 43.4554 81.16 42.0048 81.8C40.5541 82.44 38.8261 82.76 36.8208 82.76H30.0048L32.3088 80.488V89H27.1248ZM41.3647 89L35.7648 80.872H41.3008L46.9648 89H41.3647ZM32.3088 81.064L30.0048 78.632H36.5328C38.1328 78.632 39.3274 78.2907 40.1168 77.608C40.9061 76.904 41.3008 75.944 41.3008 74.728C41.3008 73.4907 40.9061 72.5307 40.1168 71.848C39.3274 71.1653 38.1328 70.824 36.5328 70.824H30.0048L32.3088 68.36V81.064ZM60.608 89.384C57.4293 89.384 54.944 88.4987 53.152 86.728C51.36 84.9573 50.464 82.4293 50.464 79.144V66.6H55.648V78.952C55.648 81.0853 56.0853 82.6213 56.96 83.56C57.8347 84.4987 59.0613 84.968 60.64 84.968C62.2187 84.968 63.4453 84.4987 64.32 83.56C65.1947 82.6213 65.632 81.0853 65.632 78.952V66.6H70.752V79.144C70.752 82.4293 69.856 84.9573 68.064 86.728C66.272 88.4987 63.7867 89.384 60.608 89.384ZM91.2348 66.6H96.4188V89H91.2348V66.6ZM81.0588 89H75.8748V66.6H81.0588V89ZM91.6188 79.816H80.6748V75.432H91.6188V79.816Z" fill="white" fill-opacity="0.1"/>
<path d="M10.187 99.902C10.7417 99.902 11.2357 100.015 11.669 100.24C12.111 100.457 12.4577 100.795 12.709 101.254C12.9603 101.705 13.086 102.285 13.086 102.996V107H11.058V103.308C11.058 102.745 10.9323 102.329 10.681 102.06C10.4383 101.791 10.0917 101.657 9.641 101.657C9.32033 101.657 9.03 101.726 8.77 101.865C8.51867 101.995 8.31933 102.199 8.172 102.476C8.03333 102.753 7.964 103.109 7.964 103.542V107H5.936V100.006H7.873V101.943L7.509 101.358C7.76033 100.89 8.12 100.53 8.588 100.279C9.056 100.028 9.589 99.902 10.187 99.902ZM18.3031 107.104C17.5577 107.104 16.8947 106.948 16.3141 106.636C15.7421 106.324 15.2871 105.899 14.9491 105.362C14.6197 104.816 14.4551 104.196 14.4551 103.503C14.4551 102.801 14.6197 102.181 14.9491 101.644C15.2871 101.098 15.7421 100.673 16.3141 100.37C16.8947 100.058 17.5577 99.902 18.3031 99.902C19.0397 99.902 19.6984 100.058 20.2791 100.37C20.8597 100.673 21.3147 101.094 21.6441 101.631C21.9734 102.168 22.1381 102.792 22.1381 103.503C22.1381 104.196 21.9734 104.816 21.6441 105.362C21.3147 105.899 20.8597 106.324 20.2791 106.636C19.6984 106.948 19.0397 107.104 18.3031 107.104ZM18.3031 105.44C18.6411 105.44 18.9444 105.362 19.2131 105.206C19.4817 105.05 19.6941 104.829 19.8501 104.543C20.0061 104.248 20.0841 103.902 20.0841 103.503C20.0841 103.096 20.0061 102.749 19.8501 102.463C19.6941 102.177 19.4817 101.956 19.2131 101.8C18.9444 101.644 18.6411 101.566 18.3031 101.566C17.9651 101.566 17.6617 101.644 17.3931 101.8C17.1244 101.956 16.9077 102.177 16.7431 102.463C16.5871 102.749 16.5091 103.096 16.5091 103.503C16.5091 103.902 16.5871 104.248 16.7431 104.543C16.9077 104.829 17.1244 105.05 17.3931 105.206C17.6617 105.362 17.9651 105.44 18.3031 105.44ZM27.1753 107V100.006H29.2033V107H27.1753ZM28.1893 99.031C27.8166 99.031 27.5133 98.9227 27.2793 98.706C27.0453 98.4893 26.9283 98.2207 26.9283 97.9C26.9283 97.5793 27.0453 97.3107 27.2793 97.094C27.5133 96.8773 27.8166 96.769 28.1893 96.769C28.5619 96.769 28.8653 96.873 29.0993 97.081C29.3333 97.2803 29.4503 97.5403 29.4503 97.861C29.4503 98.199 29.3333 98.4807 29.0993 98.706C28.8739 98.9227 28.5706 99.031 28.1893 99.031ZM40.0424 99.902C40.5971 99.902 41.0867 100.015 41.5114 100.24C41.9447 100.457 42.2827 100.795 42.5254 101.254C42.7767 101.705 42.9024 102.285 42.9024 102.996V107H40.8744V103.308C40.8744 102.745 40.7574 102.329 40.5234 102.06C40.2894 101.791 39.9601 101.657 39.5354 101.657C39.2407 101.657 38.9764 101.726 38.7424 101.865C38.5084 101.995 38.3264 102.194 38.1964 102.463C38.0664 102.732 38.0014 103.074 38.0014 103.49V107H35.9734V103.308C35.9734 102.745 35.8564 102.329 35.6224 102.06C35.3971 101.791 35.0721 101.657 34.6474 101.657C34.3527 101.657 34.0884 101.726 33.8544 101.865C33.6204 101.995 33.4384 102.194 33.3084 102.463C33.1784 102.732 33.1134 103.074 33.1134 103.49V107H31.0854V100.006H33.0224V101.917L32.6584 101.358C32.9011 100.881 33.2434 100.522 33.6854 100.279C34.1361 100.028 34.6474 99.902 35.2194 99.902C35.8607 99.902 36.4197 100.067 36.8964 100.396C37.3817 100.717 37.7024 101.211 37.8584 101.878L37.1434 101.683C37.3774 101.137 37.7501 100.704 38.2614 100.383C38.7814 100.062 39.3751 99.902 40.0424 99.902ZM49.0102 107V105.635L48.8802 105.336V102.892C48.8802 102.459 48.7458 102.121 48.4772 101.878C48.2172 101.635 47.8142 101.514 47.2682 101.514C46.8955 101.514 46.5272 101.575 46.1632 101.696C45.8078 101.809 45.5045 101.965 45.2532 102.164L44.5252 100.747C44.9065 100.478 45.3658 100.27 45.9032 100.123C46.4405 99.9757 46.9865 99.902 47.5412 99.902C48.6072 99.902 49.4348 100.153 50.0242 100.656C50.6135 101.159 50.9082 101.943 50.9082 103.009V107H49.0102ZM46.8782 107.104C46.3322 107.104 45.8642 107.013 45.4742 106.831C45.0842 106.64 44.7852 106.385 44.5772 106.064C44.3692 105.743 44.2652 105.384 44.2652 104.985C44.2652 104.569 44.3648 104.205 44.5642 103.893C44.7722 103.581 45.0972 103.338 45.5392 103.165C45.9812 102.983 46.5575 102.892 47.2682 102.892H49.1272V104.075H47.4892C47.0125 104.075 46.6832 104.153 46.5012 104.309C46.3278 104.465 46.2412 104.66 46.2412 104.894C46.2412 105.154 46.3408 105.362 46.5402 105.518C46.7482 105.665 47.0298 105.739 47.3852 105.739C47.7232 105.739 48.0265 105.661 48.2952 105.505C48.5638 105.34 48.7588 105.102 48.8802 104.79L49.1922 105.726C49.0448 106.177 48.7762 106.519 48.3862 106.753C47.9962 106.987 47.4935 107.104 46.8782 107.104ZM56.0834 109.626C55.4247 109.626 54.7877 109.544 54.1724 109.379C53.5657 109.223 53.0587 108.985 52.6514 108.664L53.4574 107.208C53.7521 107.451 54.1247 107.641 54.5754 107.78C55.0347 107.927 55.4854 108.001 55.9274 108.001C56.6467 108.001 57.1667 107.841 57.4874 107.52C57.8167 107.199 57.9814 106.723 57.9814 106.09V105.037L58.1114 103.282L58.0854 101.514V100.006H60.0094V105.83C60.0094 107.13 59.6714 108.088 58.9954 108.703C58.3194 109.318 57.3487 109.626 56.0834 109.626ZM55.7714 106.662C55.1214 106.662 54.5321 106.523 54.0034 106.246C53.4834 105.96 53.0631 105.566 52.7424 105.063C52.4304 104.552 52.2744 103.958 52.2744 103.282C52.2744 102.597 52.4304 102.004 52.7424 101.501C53.0631 100.99 53.4834 100.595 54.0034 100.318C54.5321 100.041 55.1214 99.902 55.7714 99.902C56.3607 99.902 56.8807 100.023 57.3314 100.266C57.7821 100.5 58.1331 100.868 58.3844 101.371C58.6357 101.865 58.7614 102.502 58.7614 103.282C58.7614 104.053 58.6357 104.69 58.3844 105.193C58.1331 105.687 57.7821 106.055 57.3314 106.298C56.8807 106.541 56.3607 106.662 55.7714 106.662ZM56.1744 104.998C56.5297 104.998 56.8461 104.929 57.1234 104.79C57.4007 104.643 57.6174 104.439 57.7734 104.179C57.9294 103.919 58.0074 103.62 58.0074 103.282C58.0074 102.935 57.9294 102.636 57.7734 102.385C57.6174 102.125 57.4007 101.926 57.1234 101.787C56.8461 101.64 56.5297 101.566 56.1744 101.566C55.8191 101.566 55.5027 101.64 55.2254 101.787C54.9481 101.926 54.7271 102.125 54.5624 102.385C54.4064 102.636 54.3284 102.935 54.3284 103.282C54.3284 103.62 54.4064 103.919 54.5624 104.179C54.7271 104.439 54.9481 104.643 55.2254 104.79C55.5027 104.929 55.8191 104.998 56.1744 104.998ZM65.3679 107.104C64.5706 107.104 63.8686 106.948 63.2619 106.636C62.6639 106.324 62.2003 105.899 61.8709 105.362C61.5416 104.816 61.3769 104.196 61.3769 103.503C61.3769 102.801 61.5373 102.181 61.8579 101.644C62.1873 101.098 62.6336 100.673 63.1969 100.37C63.7603 100.058 64.3973 99.902 65.1079 99.902C65.7926 99.902 66.4079 100.049 66.9539 100.344C67.5086 100.63 67.9463 101.046 68.2669 101.592C68.5876 102.129 68.7479 102.775 68.7479 103.529C68.7479 103.607 68.7436 103.698 68.7349 103.802C68.7263 103.897 68.7176 103.988 68.7089 104.075H63.0279V102.892H67.6429L66.8629 103.243C66.8629 102.879 66.7893 102.563 66.6419 102.294C66.4946 102.025 66.2909 101.817 66.0309 101.67C65.7709 101.514 65.4676 101.436 65.1209 101.436C64.7743 101.436 64.4666 101.514 64.1979 101.67C63.9379 101.817 63.7343 102.03 63.5869 102.307C63.4396 102.576 63.3659 102.896 63.3659 103.269V103.581C63.3659 103.962 63.4483 104.3 63.6129 104.595C63.7863 104.881 64.0246 105.102 64.3279 105.258C64.6399 105.405 65.0039 105.479 65.4199 105.479C65.7926 105.479 66.1176 105.423 66.3949 105.31C66.6809 105.197 66.9409 105.028 67.1749 104.803L68.2539 105.973C67.9333 106.337 67.5303 106.619 67.0449 106.818C66.5596 107.009 66.0006 107.104 65.3679 107.104ZM74.6638 109.626C74.2998 109.626 73.9401 109.57 73.5848 109.457C73.2294 109.344 72.9391 109.188 72.7137 108.989L73.4548 107.546C73.6108 107.685 73.7884 107.793 73.9878 107.871C74.1958 107.949 74.3994 107.988 74.5988 107.988C74.8848 107.988 75.1101 107.919 75.2748 107.78C75.4481 107.65 75.6041 107.429 75.7428 107.117L76.1068 106.259L76.2628 106.038L78.7718 100.006H80.7218L77.5628 107.429C77.3374 107.992 77.0774 108.434 76.7828 108.755C76.4968 109.076 76.1761 109.301 75.8208 109.431C75.4741 109.561 75.0884 109.626 74.6638 109.626ZM75.8598 107.273L72.7397 100.006H74.8328L77.2508 105.856L75.8598 107.273ZM84.8299 107.104C84.0325 107.104 83.3305 106.948 82.7239 106.636C82.1259 106.324 81.6622 105.899 81.3329 105.362C81.0035 104.816 80.8389 104.196 80.8389 103.503C80.8389 102.801 80.9992 102.181 81.3199 101.644C81.6492 101.098 82.0955 100.673 82.6589 100.37C83.2222 100.058 83.8592 99.902 84.5699 99.902C85.2545 99.902 85.8699 100.049 86.4159 100.344C86.9705 100.63 87.4082 101.046 87.7289 101.592C88.0495 102.129 88.2099 102.775 88.2099 103.529C88.2099 103.607 88.2055 103.698 88.1969 103.802C88.1882 103.897 88.1795 103.988 88.1709 104.075H82.4899V102.892H87.1049L86.3249 103.243C86.3249 102.879 86.2512 102.563 86.1039 102.294C85.9565 102.025 85.7529 101.817 85.4929 101.67C85.2329 101.514 84.9295 101.436 84.5829 101.436C84.2362 101.436 83.9285 101.514 83.6599 101.67C83.3999 101.817 83.1962 102.03 83.0489 102.307C82.9015 102.576 82.8279 102.896 82.8279 103.269V103.581C82.8279 103.962 82.9102 104.3 83.0749 104.595C83.2482 104.881 83.4865 105.102 83.7899 105.258C84.1019 105.405 84.4659 105.479 84.8819 105.479C85.2545 105.479 85.5795 105.423 85.8569 105.31C86.1429 105.197 86.4029 105.028 86.6369 104.803L87.7159 105.973C87.3952 106.337 86.9922 106.619 86.5069 106.818C86.0215 107.009 85.4625 107.104 84.8299 107.104ZM92.42 107.104C91.5967 107.104 90.9554 106.896 90.496 106.48C90.0367 106.055 89.807 105.427 89.807 104.595V98.459H91.835V104.569C91.835 104.864 91.913 105.093 92.069 105.258C92.225 105.414 92.4374 105.492 92.706 105.492C93.0267 105.492 93.2997 105.405 93.525 105.232L94.071 106.662C93.863 106.809 93.6117 106.922 93.317 107C93.031 107.069 92.732 107.104 92.42 107.104ZM88.728 101.722V100.162H93.577V101.722H88.728Z" fill="white" fill-opacity="0.1"/>
<g opacity="0.1" clip-path="url(#clip0_94_4218)">
<path d="M46.2827 40.1721C47.729 40.0695 48.8179 38.8176 48.715 37.3759C48.6121 35.9342 47.3563 34.8486 45.9101 34.9512C44.4639 35.0538 43.3749 36.3057 43.4778 37.7474C43.5807 39.1891 44.8365 40.2746 46.2827 40.1721Z" fill="white"/>
<path d="M59.0095 20.2239C65.4349 19.8 71.068 16.4936 74.622 11.5898C74.9197 12.857 75.0786 14.18 75.0786 15.5365C75.0786 20.5809 72.9032 25.1278 69.441 28.2959C68.4182 29.2307 67.2566 29.9803 66.0056 30.5358C64.3629 31.2631 62.5725 31.5956 60.7753 31.5956H57.0378C54.8333 27.5864 50.4759 24.9203 45.5142 25.1434C39.1201 25.4312 33.9257 30.6028 33.6325 36.9791C33.3035 44.114 39.0082 50.0017 46.0938 50.0017C53.1794 50.0017 58.5686 44.433 58.5686 37.5659C58.5686 37.1553 58.5485 36.7515 58.5082 36.3522L64.0115 36.1692C66.2361 35.9461 68.3779 35.1853 70.2265 33.9315C76.126 29.9334 80.0022 23.1868 80.0022 15.5387C80.0022 11.9579 79.1495 8.57786 77.6411 5.58156C76.6004 3.51784 75.2487 1.63707 73.644 0.00170898C73.5589 2.13905 73.0531 4.16707 72.2049 6.00992C70.0184 10.7643 65.5625 14.2759 60.227 15.1505C59.4884 15.271 58.7409 15.3178 57.9934 15.3134L46.5034 15.2643C46.3355 15.2554 45.4851 15.2576 44.9771 15.2576C33.3908 15.2576 24 24.6191 24 36.167H28.9237C28.9237 27.7247 35.5169 20.7951 43.8379 20.2105M46.0916 45.0912C41.9289 45.0912 38.5405 41.7134 38.5405 37.5636C38.5405 33.4139 41.9289 30.0361 46.0916 30.0361C50.2543 30.0361 53.6427 33.4139 53.6427 37.5636C53.6427 41.7134 50.2543 45.0912 46.0916 45.0912Z" fill="white"/>
</g>
<defs>
<clipPath id="clip0_94_4218">
<rect width="56" height="50" fill="white" transform="translate(24)"/>
</clipPath>
</defs>
</svg>
