<svg width="101" height="100" viewBox="0 0 101 100" fill="none" xmlns="http://www.w3.org/2000/svg">
<rect x="24.049" y="32.5525" width="43.007" height="43.007" rx="3.5" transform="rotate(-30 24.049 32.5525)" fill="#67FF95" fill-opacity="0.3" stroke="#67FF95" stroke-width="3"/>
<path d="M11.5883 20.2027L11.5883 20.2027C10.8719 19.9508 10.0869 20.3274 9.83503 21.0438L11.5883 20.2027ZM11.5883 20.2027L12.8441 20.6442L12.8442 20.6442M11.5883 20.2027L12.8442 20.6442M12.8442 20.6442C15.4469 21.5592 17.5176 22.29 19.1213 23.0769L19.1213 23.0769M12.8442 20.6442L19.1213 23.0769M19.1213 23.0769C20.7972 23.8992 22.0866 24.8388 23.0418 26.2365C23.993 27.6285 24.4236 29.1983 24.6307 31.1114C24.7236 31.9698 24.7747 32.9412 24.802 34.0433L24.8442 35.75M19.1213 23.0769L24.8442 35.75M24.8442 35.75H26.5515M24.8442 35.75H26.5515M26.5515 35.75H70.8772C74.42 35.75 77.6462 35.7524 80.2172 36.0398C81.4984 36.183 82.5349 36.3893 83.3209 36.6655C84.121 36.9466 84.5074 37.2465 84.6805 37.4715L84.6806 37.4717M26.5515 35.75L84.6806 37.4717M84.6806 37.4717C85.2324 38.1889 85.5162 39.1909 85.3972 41.118C85.276 43.0821 84.7656 45.6594 84.033 49.33C84.0326 49.3319 84.0322 49.3338 84.0319 49.3356L81.9515 59.428C81.2862 62.6561 80.8162 64.9214 80.2427 66.6232C79.6845 68.2794 79.0896 69.2032 78.2916 69.8534C77.4938 70.5037 76.469 70.8998 74.7341 71.1122C72.9516 71.3303 70.6381 71.3334 67.3422 71.3334H45.2468C39.3844 71.3334 35.1732 71.3292 31.9682 70.8748C28.8234 70.4288 26.9061 69.5802 25.476 68.0718C23.9347 66.446 23.1057 64.8107 22.6404 62.0941C22.1535 59.2513 22.0825 55.3376 22.0825 49.1667V38.3264C22.0825 35.2827 22.0807 33.1077 21.8966 31.4073M84.6806 37.4717L20.7713 27.788M20.7713 27.788L20.7713 27.7881C21.371 28.6657 21.7159 29.738 21.8966 31.4073M20.7713 27.788C20.1758 26.9167 19.3343 26.2446 17.9099 25.5457C16.4499 24.8293 14.5056 24.1434 11.7645 23.1797C11.7645 23.1797 11.7645 23.1797 11.7645 23.1797L10.6762 22.797L10.6761 22.797M20.7713 27.788L10.6761 22.797M21.8966 31.4073L20.1568 31.5957L21.8966 31.4073ZM10.6761 22.797C9.95977 22.5452 9.58317 21.7603 9.83502 21.0438L10.6761 22.797ZM19.8915 21.5073L19.8922 21.5058L19.8915 21.5073Z" fill="#AE8BFF" fill-opacity="0.3" stroke="#AE8BFF" stroke-width="3.5"/>
<path d="M30.75 85.5C33.3733 85.5 35.5 87.6267 35.5 90.25C35.5 92.8733 33.3733 95 30.75 95C28.1267 95 26 92.8733 26 90.25C26 87.6267 28.1267 85.5 30.75 85.5Z" fill="#AE8BFF" fill-opacity="0.3" stroke="#AE8BFF" stroke-width="3"/>
<path d="M68.25 85.5005C70.8733 85.5005 73 87.6269 73 90.2505C73 92.8737 70.8732 95.0005 68.25 95.0005C65.6268 95.0005 63.5 92.8737 63.5 90.2505C63.5 87.6269 65.6267 85.5005 68.25 85.5005Z" fill="#AE8BFF" fill-opacity="0.3" stroke="#AE8BFF" stroke-width="3"/>
</svg>
