<svg width="101" height="100" viewBox="0 0 101 100" fill="none" xmlns="http://www.w3.org/2000/svg">
<path d="M61 21.032V35.09H29.0049C21.2947 35.09 15 41.3421 15 49V35.4231C15 31.0207 17.719 27.099 21.8534 25.5453L51.4275 14.4468C56.0462 12.7451 61 16.1117 61 21.032Z" fill="#AE8BFF"/>
<path d="M91 57.2293V65.7707C91 68.0512 89.1985 69.9171 86.9057 70H78.881C74.4592 70 70.4058 66.7244 70.0374 62.2463C69.7917 59.6341 70.7743 57.1878 72.4939 55.4878C74.0088 53.9122 76.0969 53 78.3897 53H86.9057C89.1985 53.0829 91 54.9488 91 57.2293Z" fill="#AE8BFF"/>
<path fill-rule="evenodd" clip-rule="evenodd" d="M86 53.7053H78.4516C76.3589 53.7053 74.4532 54.5389 73.0705 55.9789C71.5011 57.5326 70.6042 59.7684 70.8284 62.1558C71.1647 66.2484 74.8642 69.2421 78.9 69.2421H86V73.7516C86 81.5958 79.6847 88 71.9495 88H35.3322C38.221 85.0282 40 80.9719 40 76.5C40 67.3873 32.6127 60 23.5 60C20.3909 60 17.4826 60.86 15 62.355V48.2484C15 40.4043 21.3153 34 29.0505 34H71.9495C79.6847 34 86 40.4043 86 48.2484V53.7053Z" fill="#AE8BFF" fill-opacity="0.3"/>
<path d="M86 53.7053V55.2053H87.5V53.7053H86ZM73.0705 55.9789L74.1258 57.045L74.1393 57.0316L74.1525 57.0178L73.0705 55.9789ZM70.8284 62.1558L72.3234 62.0329L72.3227 62.0242L72.3218 62.0155L70.8284 62.1558ZM86 69.2421H87.5V67.7421H86V69.2421ZM35.3322 88L34.2566 86.9544L31.7821 89.5H35.3322V88ZM15 62.355H13.5V65.0093L15.7738 63.64L15 62.355ZM78.4516 55.2053H86V52.2053H78.4516V55.2053ZM74.1525 57.0178C75.2526 55.8721 76.7678 55.2053 78.4516 55.2053V52.2053C75.9501 52.2053 73.6537 53.2058 71.9885 54.9401L74.1525 57.0178ZM72.3218 62.0155C72.1414 60.0946 72.8619 58.2962 74.1258 57.045L72.0152 54.9129C70.1402 56.7691 69.067 59.4422 69.335 62.296L72.3218 62.0155ZM78.9 67.7421C75.5445 67.7421 72.5878 65.2511 72.3234 62.0329L69.3335 62.2786C69.7416 67.2457 74.1839 70.7421 78.9 70.7421V67.7421ZM86 67.7421H78.9V70.7421H86V67.7421ZM87.5 73.7516V69.2421H84.5V73.7516H87.5ZM71.9495 89.5C80.5329 89.5 87.5 82.4044 87.5 73.7516H84.5C84.5 80.7872 78.8366 86.5 71.9495 86.5V89.5ZM35.3322 89.5H71.9495V86.5H35.3322V89.5ZM38.5 76.5C38.5 80.5659 36.8843 84.2514 34.2566 86.9544L36.4077 89.0456C39.5578 85.8051 41.5 81.3778 41.5 76.5H38.5ZM23.5 61.5C31.7843 61.5 38.5 68.2157 38.5 76.5H41.5C41.5 66.5589 33.4411 58.5 23.5 58.5V61.5ZM15.7738 63.64C18.0293 62.2817 20.6711 61.5 23.5 61.5V58.5C20.1106 58.5 16.9358 59.4382 14.2262 61.07L15.7738 63.64ZM13.5 48.2484V62.355H16.5V48.2484H13.5ZM29.0505 32.5C20.4671 32.5 13.5 39.5957 13.5 48.2484H16.5C16.5 41.2128 22.1634 35.5 29.0505 35.5V32.5ZM71.9495 32.5H29.0505V35.5H71.9495V32.5ZM87.5 48.2484C87.5 39.5957 80.5329 32.5 71.9495 32.5V35.5C78.8366 35.5 84.5 41.2128 84.5 48.2484H87.5ZM87.5 53.7053V48.2484H84.5V53.7053H87.5Z" fill="#AE8BFF"/>
<path d="M25.2846 73.4801L27.0141 71.716C27.3788 71.3757 27.9246 71.373 28.2921 71.7079C28.627 72.0754 28.6243 72.6212 28.284 72.9858L26.5199 74.7154L25.2457 75.9645L26.5194 77.2142L28.3538 79.014C28.6908 79.3749 28.6969 79.9135 28.3722 80.2809C28.1862 80.4399 27.9648 80.515 27.745 80.515C27.5185 80.515 27.2904 80.4353 27.101 80.2661L25.2724 78.4376L24.035 77.2001L22.7976 78.4376L20.8726 80.3626C20.6931 80.5421 20.4809 80.62 20.255 80.62C20.0291 80.62 19.8169 80.5421 19.6374 80.3626C19.3059 80.031 19.3059 79.459 19.6374 79.1274L18.4 77.89L19.6374 79.1274L21.5624 77.2024L22.7999 75.965L21.5624 74.7276L19.7074 72.8726C19.3792 72.5444 19.3759 71.9806 19.6974 71.6476C20.065 71.3029 20.6179 71.3025 20.9861 71.6462L22.7858 73.4806L24.0355 74.7543L25.2846 73.4801ZM24 60.25C20.2943 60.25 16.8693 61.5518 14.1608 63.7103C10.5337 66.589 8.25 71.0434 8.25 76C8.25 78.9482 9.07436 81.7462 10.5331 84.1166C13.2535 88.6807 18.2554 91.75 24 91.75C27.9612 91.75 31.5881 90.2997 34.353 87.8211C35.5792 86.788 36.6423 85.5257 37.4708 84.1104C38.9271 81.7413 39.75 78.9456 39.75 76C39.75 67.2985 32.7015 60.25 24 60.25Z" fill="#FF6780" fill-opacity="0.3" stroke="#FF6780" stroke-width="3.5"/>
<path d="M58.8332 53.125H29.6665C27.9582 53.125 26.5415 51.7083 26.5415 50C26.5415 48.2917 27.9582 46.875 29.6665 46.875H58.8332C60.5415 46.875 61.9582 48.2917 61.9582 50C61.9582 51.7083 60.5415 53.125 58.8332 53.125Z" fill="#1C1A27"/>
</svg>
