<svg width="393" height="314" viewBox="0 0 393 314" fill="none" xmlns="http://www.w3.org/2000/svg">
<g opacity="0.59">
<rect x="0.707107" width="49.8378" height="49.8378" rx="9.5" transform="matrix(0.707107 0.707107 0.707107 -0.707107 289.115 218.876)" fill="#8359FF" fill-opacity="0.21" stroke="url(#paint0_linear_536_6263)"/>
<rect x="-0.707107" width="22.9922" height="22.9922" rx="5.5" transform="matrix(-0.707107 -0.707107 -0.707107 0.707107 341.02 280.273)" fill="#8359FF" fill-opacity="0.21" stroke="url(#paint1_linear_536_6263)"/>
<rect x="317.284" y="305.009" width="11.5673" height="11.5673" rx="3.5" transform="rotate(135 317.284 305.009)" fill="#8359FF" fill-opacity="0.21" stroke="url(#paint2_linear_536_6263)"/>
<rect x="0.707107" width="55.5502" height="55.5502" rx="9.5" transform="matrix(0.707107 0.707107 0.707107 -0.707107 285.076 128.396)" fill="#8359FF" fill-opacity="0.21" stroke="url(#paint3_linear_536_6263)"/>
<rect x="0.707107" width="50.4062" height="50.4062" rx="9.5" transform="matrix(0.707107 0.707107 0.707107 -0.707107 288.713 38.3213)" fill="#8359FF" fill-opacity="0.21" stroke="url(#paint4_linear_536_6263)"/>
<rect x="0.707107" width="32.7006" height="32.7006" rx="9.5" transform="matrix(0.707107 0.707107 0.707107 -0.707107 346.473 173.636)" fill="#8359FF" fill-opacity="0.21" stroke="url(#paint5_linear_536_6263)"/>
<rect x="0.707107" width="42.9829" height="42.9829" rx="9.5" transform="matrix(0.707107 0.707107 0.707107 -0.707107 248.722 173.636)" fill="#8359FF" fill-opacity="0.21" stroke="url(#paint6_linear_536_6263)"/>
<rect x="303.547" y="83.2539" width="32.7006" height="32.7006" rx="9.5" transform="rotate(135 303.547 83.2539)" fill="#8359FF" fill-opacity="0.21" stroke="url(#paint7_linear_536_6263)"/>
<rect x="401.298" y="83.2539" width="42.9829" height="42.9829" rx="9.5" transform="rotate(135 401.298 83.2539)" fill="#8359FF" fill-opacity="0.21" stroke="url(#paint8_linear_536_6263)"/>
<rect x="0.707107" width="49.8378" height="49.8378" rx="9.5" transform="matrix(0.707107 0.707107 0.707107 -0.707107 167.128 170.404)" fill="#8359FF" fill-opacity="0.21" stroke="url(#paint9_linear_536_6263)"/>
<rect x="219.533" y="232.302" width="22.9922" height="22.9922" rx="5.5" transform="rotate(135 219.533 232.302)" fill="#8359FF" fill-opacity="0.21" stroke="url(#paint10_linear_536_6263)"/>
<rect x="-0.707107" width="11.5673" height="11.5673" rx="3.5" transform="matrix(-0.707107 -0.707107 -0.707107 0.707107 194.797 256.037)" fill="#8359FF" fill-opacity="0.21" stroke="url(#paint11_linear_536_6263)"/>
<rect x="0.707107" width="55.5502" height="55.5502" rx="9.5" transform="matrix(0.707107 0.707107 0.707107 -0.707107 163.089 79.9238)" fill="#8359FF" fill-opacity="0.21" stroke="url(#paint12_linear_536_6263)"/>
<rect x="0.707107" width="50.4062" height="50.4062" rx="9.5" transform="matrix(0.707107 0.707107 0.707107 -0.707107 166.727 -10.1504)" fill="#8359FF" fill-opacity="0.21" stroke="url(#paint13_linear_536_6263)"/>
<rect x="0.707107" width="32.7006" height="32.7006" rx="9.5" transform="matrix(0.707107 0.707107 0.707107 -0.707107 224.486 125.164)" fill="#8359FF" fill-opacity="0.21" stroke="url(#paint14_linear_536_6263)"/>
<rect x="0.707107" width="42.9829" height="42.9829" rx="9.5" transform="matrix(0.707107 0.707107 0.707107 -0.707107 126.735 125.164)" fill="#8359FF" fill-opacity="0.21" stroke="url(#paint15_linear_536_6263)"/>
<rect x="181.56" y="34.7822" width="32.7006" height="32.7006" rx="9.5" transform="rotate(135 181.56 34.7822)" fill="#8359FF" fill-opacity="0.21" stroke="url(#paint16_linear_536_6263)"/>
<rect x="279.311" y="34.7822" width="42.9829" height="42.9829" rx="9.5" transform="rotate(135 279.311 34.7822)" fill="#8359FF" fill-opacity="0.21" stroke="url(#paint17_linear_536_6263)"/>
<rect x="0.707107" width="49.8378" height="49.8378" rx="9.5" transform="matrix(0.707107 0.707107 0.707107 -0.707107 30.6002 211.605)" fill="#8359FF" fill-opacity="0.21" stroke="url(#paint18_linear_536_6263)"/>
<rect x="0.707107" width="22.9922" height="22.9922" rx="5.5" transform="matrix(0.707107 0.707107 0.707107 -0.707107 49.9888 273.003)" fill="#8359FF" fill-opacity="0.21" stroke="url(#paint19_linear_536_6263)"/>
<rect x="-0.707107" width="11.5673" height="11.5673" rx="3.5" transform="matrix(-0.707107 -0.707107 -0.707107 0.707107 58.269 297.238)" fill="#8359FF" fill-opacity="0.21" stroke="url(#paint20_linear_536_6263)"/>
<rect x="0.707107" width="55.5502" height="55.5502" rx="9.5" transform="matrix(0.707107 0.707107 0.707107 -0.707107 26.5606 121.125)" fill="#8359FF" fill-opacity="0.21" stroke="url(#paint21_linear_536_6263)"/>
<rect x="0.707107" width="50.4062" height="50.4062" rx="9.5" transform="matrix(0.707107 0.707107 0.707107 -0.707107 30.1983 31.0508)" fill="#8359FF" fill-opacity="0.21" stroke="url(#paint22_linear_536_6263)"/>
<rect x="0.707107" width="32.7006" height="32.7006" rx="9.5" transform="matrix(0.707107 0.707107 0.707107 -0.707107 87.9581 166.365)" fill="#8359FF" fill-opacity="0.21" stroke="url(#paint23_linear_536_6263)"/>
<rect x="0.707107" width="42.9829" height="42.9829" rx="9.5" transform="matrix(0.707107 0.707107 0.707107 -0.707107 -9.79289 166.365)" fill="#8359FF" fill-opacity="0.21" stroke="url(#paint24_linear_536_6263)"/>
<rect x="45.0317" y="75.9834" width="32.7006" height="32.7006" rx="9.5" transform="rotate(135 45.0317 75.9834)" fill="#8359FF" fill-opacity="0.21" stroke="url(#paint25_linear_536_6263)"/>
<rect x="142.783" y="75.9834" width="42.9829" height="42.9829" rx="9.5" transform="rotate(135 142.783 75.9834)" fill="#8359FF" fill-opacity="0.21" stroke="url(#paint26_linear_536_6263)"/>
</g>
<defs>
<linearGradient id="paint0_linear_536_6263" x1="25.4189" y1="0" x2="25.4189" y2="50.8378" gradientUnits="userSpaceOnUse">
<stop stop-color="#9F70FF" stop-opacity="0.49"/>
<stop offset="1" stop-color="#C3A1EE" stop-opacity="0.11"/>
</linearGradient>
<linearGradient id="paint1_linear_536_6263" x1="11.9961" y1="0" x2="11.9961" y2="23.9922" gradientUnits="userSpaceOnUse">
<stop stop-color="#9F70FF" stop-opacity="0.49"/>
<stop offset="1" stop-color="#C3A1EE" stop-opacity="0.11"/>
</linearGradient>
<linearGradient id="paint2_linear_536_6263" x1="324.275" y1="305.009" x2="324.275" y2="317.576" gradientUnits="userSpaceOnUse">
<stop stop-color="#9F70FF" stop-opacity="0.49"/>
<stop offset="1" stop-color="#C3A1EE" stop-opacity="0.11"/>
</linearGradient>
<linearGradient id="paint3_linear_536_6263" x1="28.2751" y1="0" x2="28.2751" y2="56.5502" gradientUnits="userSpaceOnUse">
<stop stop-color="#9F70FF" stop-opacity="0.49"/>
<stop offset="1" stop-color="#C3A1EE" stop-opacity="0.11"/>
</linearGradient>
<linearGradient id="paint4_linear_536_6263" x1="25.7031" y1="0" x2="25.7031" y2="51.4062" gradientUnits="userSpaceOnUse">
<stop stop-color="#9F70FF" stop-opacity="0.49"/>
<stop offset="1" stop-color="#C3A1EE" stop-opacity="0.11"/>
</linearGradient>
<linearGradient id="paint5_linear_536_6263" x1="16.8503" y1="0" x2="16.8503" y2="33.7006" gradientUnits="userSpaceOnUse">
<stop stop-color="#9F70FF" stop-opacity="0.49"/>
<stop offset="1" stop-color="#C3A1EE" stop-opacity="0.11"/>
</linearGradient>
<linearGradient id="paint6_linear_536_6263" x1="21.9914" y1="0" x2="21.9914" y2="43.9829" gradientUnits="userSpaceOnUse">
<stop stop-color="#9F70FF" stop-opacity="0.49"/>
<stop offset="1" stop-color="#C3A1EE" stop-opacity="0.11"/>
</linearGradient>
<linearGradient id="paint7_linear_536_6263" x1="321.104" y1="83.2539" x2="321.104" y2="116.955" gradientUnits="userSpaceOnUse">
<stop stop-color="#9F70FF" stop-opacity="0.49"/>
<stop offset="1" stop-color="#C3A1EE" stop-opacity="0.11"/>
</linearGradient>
<linearGradient id="paint8_linear_536_6263" x1="423.996" y1="83.2539" x2="423.996" y2="127.237" gradientUnits="userSpaceOnUse">
<stop stop-color="#9F70FF" stop-opacity="0.49"/>
<stop offset="1" stop-color="#C3A1EE" stop-opacity="0.11"/>
</linearGradient>
<linearGradient id="paint9_linear_536_6263" x1="25.4189" y1="0" x2="25.4189" y2="50.8378" gradientUnits="userSpaceOnUse">
<stop stop-color="#9F70FF" stop-opacity="0.49"/>
<stop offset="1" stop-color="#C3A1EE" stop-opacity="0.11"/>
</linearGradient>
<linearGradient id="paint10_linear_536_6263" x1="232.236" y1="232.302" x2="232.236" y2="256.294" gradientUnits="userSpaceOnUse">
<stop stop-color="#9F70FF" stop-opacity="0.49"/>
<stop offset="1" stop-color="#C3A1EE" stop-opacity="0.11"/>
</linearGradient>
<linearGradient id="paint11_linear_536_6263" x1="6.28367" y1="0" x2="6.28367" y2="12.5673" gradientUnits="userSpaceOnUse">
<stop stop-color="#9F70FF" stop-opacity="0.49"/>
<stop offset="1" stop-color="#C3A1EE" stop-opacity="0.11"/>
</linearGradient>
<linearGradient id="paint12_linear_536_6263" x1="28.2751" y1="0" x2="28.2751" y2="56.5502" gradientUnits="userSpaceOnUse">
<stop stop-color="#9F70FF" stop-opacity="0.49"/>
<stop offset="1" stop-color="#C3A1EE" stop-opacity="0.11"/>
</linearGradient>
<linearGradient id="paint13_linear_536_6263" x1="25.7031" y1="0" x2="25.7031" y2="51.4062" gradientUnits="userSpaceOnUse">
<stop stop-color="#9F70FF" stop-opacity="0.49"/>
<stop offset="1" stop-color="#C3A1EE" stop-opacity="0.11"/>
</linearGradient>
<linearGradient id="paint14_linear_536_6263" x1="16.8503" y1="0" x2="16.8503" y2="33.7006" gradientUnits="userSpaceOnUse">
<stop stop-color="#9F70FF" stop-opacity="0.49"/>
<stop offset="1" stop-color="#C3A1EE" stop-opacity="0.11"/>
</linearGradient>
<linearGradient id="paint15_linear_536_6263" x1="21.9914" y1="0" x2="21.9914" y2="43.9829" gradientUnits="userSpaceOnUse">
<stop stop-color="#9F70FF" stop-opacity="0.49"/>
<stop offset="1" stop-color="#C3A1EE" stop-opacity="0.11"/>
</linearGradient>
<linearGradient id="paint16_linear_536_6263" x1="199.117" y1="34.7822" x2="199.117" y2="68.4828" gradientUnits="userSpaceOnUse">
<stop stop-color="#9F70FF" stop-opacity="0.49"/>
<stop offset="1" stop-color="#C3A1EE" stop-opacity="0.11"/>
</linearGradient>
<linearGradient id="paint17_linear_536_6263" x1="302.01" y1="34.7822" x2="302.01" y2="78.7651" gradientUnits="userSpaceOnUse">
<stop stop-color="#9F70FF" stop-opacity="0.49"/>
<stop offset="1" stop-color="#C3A1EE" stop-opacity="0.11"/>
</linearGradient>
<linearGradient id="paint18_linear_536_6263" x1="25.4189" y1="0" x2="25.4189" y2="50.8378" gradientUnits="userSpaceOnUse">
<stop stop-color="#9F70FF" stop-opacity="0.49"/>
<stop offset="1" stop-color="#C3A1EE" stop-opacity="0.11"/>
</linearGradient>
<linearGradient id="paint19_linear_536_6263" x1="11.9961" y1="0" x2="11.9961" y2="23.9922" gradientUnits="userSpaceOnUse">
<stop stop-color="#9F70FF" stop-opacity="0.49"/>
<stop offset="1" stop-color="#C3A1EE" stop-opacity="0.11"/>
</linearGradient>
<linearGradient id="paint20_linear_536_6263" x1="6.28367" y1="0" x2="6.28367" y2="12.5673" gradientUnits="userSpaceOnUse">
<stop stop-color="#9F70FF" stop-opacity="0.49"/>
<stop offset="1" stop-color="#C3A1EE" stop-opacity="0.11"/>
</linearGradient>
<linearGradient id="paint21_linear_536_6263" x1="28.2751" y1="0" x2="28.2751" y2="56.5502" gradientUnits="userSpaceOnUse">
<stop stop-color="#9F70FF" stop-opacity="0.49"/>
<stop offset="1" stop-color="#C3A1EE" stop-opacity="0.11"/>
</linearGradient>
<linearGradient id="paint22_linear_536_6263" x1="25.7031" y1="0" x2="25.7031" y2="51.4062" gradientUnits="userSpaceOnUse">
<stop stop-color="#9F70FF" stop-opacity="0.49"/>
<stop offset="1" stop-color="#C3A1EE" stop-opacity="0.11"/>
</linearGradient>
<linearGradient id="paint23_linear_536_6263" x1="16.8503" y1="0" x2="16.8503" y2="33.7006" gradientUnits="userSpaceOnUse">
<stop stop-color="#9F70FF" stop-opacity="0.49"/>
<stop offset="1" stop-color="#C3A1EE" stop-opacity="0.11"/>
</linearGradient>
<linearGradient id="paint24_linear_536_6263" x1="21.9914" y1="0" x2="21.9914" y2="43.9829" gradientUnits="userSpaceOnUse">
<stop stop-color="#9F70FF" stop-opacity="0.49"/>
<stop offset="1" stop-color="#C3A1EE" stop-opacity="0.11"/>
</linearGradient>
<linearGradient id="paint25_linear_536_6263" x1="62.5891" y1="75.9834" x2="62.5891" y2="109.684" gradientUnits="userSpaceOnUse">
<stop stop-color="#9F70FF" stop-opacity="0.49"/>
<stop offset="1" stop-color="#C3A1EE" stop-opacity="0.11"/>
</linearGradient>
<linearGradient id="paint26_linear_536_6263" x1="165.481" y1="75.9834" x2="165.481" y2="119.966" gradientUnits="userSpaceOnUse">
<stop stop-color="#9F70FF" stop-opacity="0.49"/>
<stop offset="1" stop-color="#C3A1EE" stop-opacity="0.11"/>
</linearGradient>
</defs>
</svg>
