<svg width="25" height="24" viewBox="0 0 25 24" fill="none" xmlns="http://www.w3.org/2000/svg">
<path fill-rule="evenodd" clip-rule="evenodd" d="M4.11619 1.11612C4.60434 0.627964 5.3958 0.627961 5.88395 1.11611L9.634 4.86611C10.1222 5.35426 10.1222 6.14572 9.63401 6.63388C9.14586 7.12204 8.35441 7.12204 7.86625 6.63389L6.25007 5.01774V20.75C6.25007 21.4404 5.69043 22 5.00007 22C4.30972 22 3.75008 21.4404 3.75008 20.75V5.01777L2.13388 6.63396C1.64573 7.12211 0.854272 7.12211 0.366116 6.63396C-0.122039 6.1458 -0.122039 5.35435 0.366116 4.86619L4.11619 1.11612ZM19.75 2C20.4404 2 21 2.55964 21 3.25V18.9822L22.616 17.3662C23.1041 16.8781 23.8956 16.8781 24.3838 17.3662C24.8719 17.8544 24.8719 18.6458 24.3838 19.134L20.6339 22.8839C20.1457 23.372 19.3543 23.372 18.8661 22.8839L15.1161 19.134C14.628 18.6459 14.628 17.8544 15.1161 17.3663C15.6042 16.8781 16.3957 16.8781 16.8839 17.3662L18.5 18.9823V3.25C18.5 2.55964 19.0596 2 19.75 2Z" fill="#AE8BFF"/>
</svg>
