<svg width="30" height="30" viewBox="0 0 30 30" fill="none" xmlns="http://www.w3.org/2000/svg">
<path fill-rule="evenodd" clip-rule="evenodd" d="M24.7221 5.53773C26.082 4.96514 27.5399 6.11505 27.2997 7.57092L24.4636 24.7668C24.1901 26.4248 22.3691 27.3762 20.848 26.5499C19.5751 25.8585 17.6866 24.7944 15.9846 23.6823C15.1347 23.1269 12.5324 21.3462 12.8522 20.0786C13.1257 18.9947 17.5006 14.9223 20.0006 12.5004C20.9826 11.5491 20.5354 10.9995 19.3756 11.8754C16.4986 14.0483 11.8796 17.3519 10.3522 18.2817C9.00452 19.1019 8.30087 19.2419 7.46156 19.1019C5.9289 18.8466 4.50793 18.4511 3.34783 17.9702C1.77987 17.3202 1.85625 15.1654 3.34677 14.5379L24.7221 5.53773Z" fill="#AE8BFF"/>
</svg>
