<svg width="30" height="30" viewBox="0 0 30 30" fill="none" xmlns="http://www.w3.org/2000/svg">
<path d="M24.587 10.175C24.4759 9.7466 24.253 9.35539 23.9411 9.04134C23.6293 8.72729 23.2396 8.50165 22.812 8.38749C20.2195 8.08172 17.6099 7.94394 14.9995 7.97499C12.3892 7.94394 9.77958 8.08172 7.18703 8.38749C6.75943 8.50165 6.3698 8.72729 6.05795 9.04134C5.74608 9.35539 5.5232 9.7466 5.41203 10.175C5.12805 11.7674 4.98997 13.3825 4.99953 15C4.9895 16.6258 5.12757 18.2492 5.41203 19.85C5.52896 20.2715 5.75441 20.6548 6.06588 20.962C6.37735 21.2691 6.76393 21.4891 7.18703 21.6C9.77958 21.9057 12.3892 22.0436 14.9995 22.0125C17.6099 22.0436 20.2195 21.9057 22.812 21.6C23.2351 21.4891 23.6218 21.2691 23.9331 20.962C24.2446 20.6548 24.4701 20.2715 24.587 19.85C24.8715 18.2492 25.0095 16.6258 24.9995 15C25.0091 13.3825 24.871 11.7674 24.587 10.175ZM12.9495 17.9875V12.0375L18.187 15L12.9495 17.975V17.9875Z" fill="#AE8BFF"/>
</svg>
