<svg width="30" height="30" viewBox="0 0 30 30" fill="none" xmlns="http://www.w3.org/2000/svg">
<path d="M8.24951 14.2467C8.24951 10.839 8.24951 9.13512 9.30392 8.07647C10.3583 7.01782 12.0554 7.01782 15.4495 7.01782H19.0495C22.4436 7.01782 24.1406 7.01782 25.1951 8.07647C26.2495 9.13512 26.2495 10.839 26.2495 14.2467V20.2709C26.2495 23.6786 26.2495 25.3825 25.1951 26.4411C24.1406 27.4997 22.4436 27.4997 19.0495 27.4997H15.4495C12.0554 27.4997 10.3583 27.4997 9.30392 26.4411C8.24951 25.3825 8.24951 23.6786 8.24951 20.2709V14.2467Z" fill="#4F4578"/>
<path opacity="0.5" d="M5.21446 3.96446C3.75 5.42894 3.75 7.78595 3.75 12.5V15C3.75 19.714 3.75 22.0711 5.21446 23.5355C5.98641 24.3075 7.00637 24.6725 8.48881 24.8451C8.24951 23.7941 8.24951 22.3495 8.24951 20.2709V14.2467C8.24951 10.839 8.24951 9.13512 9.30393 8.07647C10.3583 7.01782 12.0554 7.01782 15.4495 7.01782H19.0495C21.1144 7.01782 22.5511 7.01782 23.5971 7.25618C23.4254 5.76432 23.0605 4.73942 22.2855 3.96446C20.8211 2.5 18.464 2.5 13.75 2.5C9.03595 2.5 6.67894 2.5 5.21446 3.96446Z" fill="#4F4578"/>
</svg>
