<svg width="120" height="120" viewBox="0 0 120 120" fill="none" xmlns="http://www.w3.org/2000/svg">
<g filter="url(#filter0_di_93_3766)">
<circle cx="60" cy="60" r="40" fill="url(#paint0_linear_93_3766)"/>
<circle cx="60" cy="60" r="39" stroke="url(#paint1_linear_93_3766)" stroke-opacity="0.4" stroke-width="2" style="mix-blend-mode:overlay"/>
</g>
<mask id="mask0_93_3766" style="mask-type:alpha" maskUnits="userSpaceOnUse" x="20" y="20" width="80" height="80">
<circle cx="60" cy="60" r="40" fill="url(#paint2_linear_93_3766)"/>
</mask>
<g mask="url(#mask0_93_3766)">
<path d="M88.5 57C93.5 82 85.304 101.7 56.504 100.5C32.2759 99.4906 22.8624 79.538 20.2859 64.9929C19.637 62.6213 19.3504 60.1104 19.504 57.5001C19.5569 59.696 19.7996 62.2482 20.2859 64.9929C25.9755 85.7885 59.5237 95.8778 68.5 68.5C73 59.0001 86 55 88.5 57Z" fill="white"/>
</g>
<path d="M55.3807 60.06C59.3407 51.48 54.0607 52.14 45.4807 46.86C52.7407 42.9 64.6207 44.88 65.2807 50.82C65.8087 55.572 58.9007 58.96 55.3807 60.06Z" fill="white" fill-opacity="0.34"/>
<path d="M59.9801 53.0641C63.443 47.062 68.8053 47.4635 72.1995 46.9543C81.8806 48.4818 82.3824 51.0275 89.0012 60.1921C70.6721 52.0458 63.035 67.32 56.4161 67.32C51.1211 67.32 45.8939 61.38 45.7242 58.1555C50.8156 62.7377 54.8885 61.8892 59.9801 53.0641Z" fill="white"/>
<path fill-rule="evenodd" clip-rule="evenodd" d="M80.8548 42.8812C75.7633 37.2806 69.6536 32.6983 58.4525 31.6801C51.8339 34.2257 41.2425 37.2806 36.0503 37.2806C33.5045 37.2806 35.5413 51.0274 42.6691 53.5732C40.1236 48.9908 43.6713 46.7269 45.7179 46.9543C54.8885 47.9733 59.9738 48.9909 64.5561 50.0092C65.2767 50.1693 66.3437 50.2075 67.6549 50.2544C73.0141 50.446 82.4535 50.7836 88.998 60.192C88.998 56.628 85.9462 48.4817 80.8548 42.8812ZM53.4011 36.9601C54.7211 36.0801 57.3611 34.3201 60.0011 34.3201C63.301 34.3201 65.281 36.3001 65.941 36.9601C66.601 37.6201 56.7011 38.9401 53.4011 36.9601Z" fill="white"/>
<path d="M60.0009 34.3201C57.3609 34.3201 54.7209 36.0801 53.4009 36.9601C56.7009 38.9401 66.6009 37.6201 65.9409 36.9601C65.2809 36.3001 63.3009 34.3201 60.0009 34.3201Z" fill="white" fill-opacity="0.51"/>
<defs>
<filter id="filter0_di_93_3766" x="0" y="0" width="120" height="120" filterUnits="userSpaceOnUse" color-interpolation-filters="sRGB">
<feFlood flood-opacity="0" result="BackgroundImageFix"/>
<feColorMatrix in="SourceAlpha" type="matrix" values="0 0 0 0 0 0 0 0 0 0 0 0 0 0 0 0 0 0 127 0" result="hardAlpha"/>
<feOffset/>
<feGaussianBlur stdDeviation="10"/>
<feComposite in2="hardAlpha" operator="out"/>
<feColorMatrix type="matrix" values="0 0 0 0 0.835163 0 0 0 0 0.619608 0 0 0 0 1 0 0 0 0.4 0"/>
<feBlend mode="normal" in2="BackgroundImageFix" result="effect1_dropShadow_93_3766"/>
<feBlend mode="normal" in="SourceGraphic" in2="effect1_dropShadow_93_3766" result="shape"/>
<feColorMatrix in="SourceAlpha" type="matrix" values="0 0 0 0 0 0 0 0 0 0 0 0 0 0 0 0 0 0 127 0" result="hardAlpha"/>
<feOffset dy="4"/>
<feGaussianBlur stdDeviation="10"/>
<feComposite in2="hardAlpha" operator="arithmetic" k2="-1" k3="1"/>
<feColorMatrix type="matrix" values="0 0 0 0 0.962778 0 0 0 0 0.720833 0 0 0 0 1 0 0 0 1 0"/>
<feBlend mode="normal" in2="shape" result="effect2_innerShadow_93_3766"/>
</filter>
<linearGradient id="paint0_linear_93_3766" x1="41" y1="102.5" x2="76" y2="20" gradientUnits="userSpaceOnUse">
<stop stop-color="#957DFF"/>
<stop offset="1" stop-color="#D48AFF"/>
</linearGradient>
<linearGradient id="paint1_linear_93_3766" x1="37" y1="17.5" x2="95.5" y2="100" gradientUnits="userSpaceOnUse">
<stop offset="0.226264" stop-color="white" stop-opacity="0.65"/>
<stop offset="0.703812" stop-opacity="0.49"/>
</linearGradient>
<linearGradient id="paint2_linear_93_3766" x1="41" y1="102.5" x2="76" y2="20" gradientUnits="userSpaceOnUse">
<stop stop-color="#957DFF"/>
<stop offset="1" stop-color="#D48AFF"/>
</linearGradient>
</defs>
</svg>
