<svg width="30" height="31" viewBox="0 0 30 31" fill="none" xmlns="http://www.w3.org/2000/svg">
<path d="M8.24951 14.747C8.24951 11.3392 8.24951 9.63537 9.30392 8.57672C10.3583 7.51807 12.0554 7.51807 15.4495 7.51807H19.0495C22.4436 7.51807 24.1406 7.51807 25.1951 8.57672C26.2495 9.63537 26.2495 11.3392 26.2495 14.747V20.7711C26.2495 24.1789 26.2495 25.8827 25.1951 26.9414C24.1406 28 22.4436 28 19.0495 28H15.4495C12.0554 28 10.3583 28 9.30392 26.9414C8.24951 25.8827 8.24951 24.1789 8.24951 20.7711V14.747Z" fill="white"/>
<path opacity="0.5" d="M5.21446 4.46446C3.75 5.92894 3.75 8.28595 3.75 13V15.5C3.75 20.214 3.75 22.5711 5.21446 24.0355C5.98641 24.8075 7.00637 25.1725 8.48881 25.3451C8.24951 24.2941 8.24951 22.8495 8.24951 20.7709V14.7467C8.24951 11.339 8.24951 9.63512 9.30393 8.57647C10.3583 7.51782 12.0554 7.51782 15.4495 7.51782H19.0495C21.1144 7.51782 22.5511 7.51782 23.5971 7.75618C23.4254 6.26432 23.0605 5.23942 22.2855 4.46446C20.8211 3 18.464 3 13.75 3C9.03595 3 6.67894 3 5.21446 4.46446Z" fill="white"/>
</svg>
