<svg width="20" height="20" viewBox="0 0 20 20" fill="none" xmlns="http://www.w3.org/2000/svg">
<path d="M16.75 7.18758L9.25002 19.0626C9.18752 19.2501 8.93752 19.3751 8.75002 19.3751C8.68752 19.3751 8.62502 19.3751 8.56252 19.3126C8.31252 19.1876 8.12502 18.9376 8.18752 18.6251L9.25002 10.6251H3.75002C3.50002 10.6251 3.31252 10.5001 3.18752 10.3126C3.06252 10.1251 3.12502 9.87508 3.25002 9.68758L9.50002 0.937582C9.68752 0.687582 9.93752 0.625082 10.1875 0.687582C10.4375 0.750082 10.625 1.00008 10.625 1.25008V6.25008H16.25C16.5 6.25008 16.6875 6.37508 16.8125 6.56258C16.875 6.75008 16.875 7.00008 16.75 7.18758Z" fill="#AE8BFF"/>
</svg>
