<svg width="20" height="20" viewBox="0 0 20 20" fill="none" xmlns="http://www.w3.org/2000/svg">
<g clip-path="url(#clip0_210_756)">
<path d="M13.0809 1.63435C13.0972 1.75566 13.0072 1.86844 12.8885 1.89845C12.4397 2.01193 11.4571 2.44796 11.3195 4.09873C11.2843 4.58474 11.3047 5.0704 11.3786 5.5467C11.5834 6.86613 12.583 8.71973 12.2052 10.0004C11.4094 12.6981 14.813 15.2063 16.0671 12.2502C17.3212 9.29419 15.888 8.02828 16.7837 7.72085C17.9076 7.29601 18.2671 5.95126 17.7037 4.89012C17.6054 4.70503 17.4815 4.53374 17.3363 4.38264L15.8422 2.82804C15.7403 2.72199 15.6226 2.63233 15.4932 2.56224L13.3891 1.42185C13.2382 1.34002 13.0581 1.46414 13.0809 1.63435Z" fill="#AE8BFF"/>
<path d="M2.99976 15.031C2.99976 15.031 3.95825 9.94483 5.3019 11.1989C6.64555 12.453 5.39147 13.1696 6.19767 14.4237C7.00386 15.6777 8.07878 14.9611 8.16836 16.3944C8.25793 17.8276 8.43885 18.895 9.10638 18.9889C9.7739 19.0827 4.29038 17.8971 2.99976 15.031Z" fill="#AE8BFF"/>
<path d="M18.2833 10.0002C18.2833 11.6385 17.7975 13.24 16.8874 14.6022C15.9772 15.9643 14.6835 17.026 13.17 17.653C11.6564 18.28 9.99086 18.444 8.38405 18.1244C6.77723 17.8048 5.30127 17.016 4.1428 15.8575C2.98434 14.6991 2.19541 13.2232 1.87576 11.6164C1.5561 10.0096 1.72011 8.34409 2.34701 6.83049C2.97391 5.3169 4.03557 4.02319 5.39773 3.11296C6.75988 2.20273 8.36133 1.71686 9.99962 1.7168C11.0874 1.71675 12.1646 1.93098 13.1696 2.34724C14.1747 2.7635 15.0879 3.37365 15.8571 4.14283C16.6263 4.91202 17.2365 5.82518 17.6528 6.8302C18.0691 7.8352 18.2833 8.91236 18.2833 10.0002Z" stroke="#AE8BFF" stroke-width="2" stroke-linecap="round" stroke-linejoin="round"/>
<path d="M9.73666 7.88908C9.73659 8.31979 9.60882 8.74081 9.36947 9.0989C9.13013 9.45699 8.78999 9.73606 8.39205 9.90084C7.9941 10.0656 7.55624 10.1087 7.13382 10.0246C6.71139 9.94056 6.32336 9.73311 6.01883 9.42853C5.71429 9.12395 5.50693 8.73591 5.42293 8.31347C5.33893 7.89103 5.38205 7.45315 5.54689 7.05524C5.71173 6.65732 5.99088 6.31722 6.34901 6.07794C6.70714 5.83865 7.12816 5.71094 7.55887 5.71094C8.13649 5.71103 8.69041 5.94056 9.09882 6.34903C9.50722 6.7575 9.73666 7.31146 9.73666 7.88908Z" fill="#AE8BFF"/>
</g>
<defs>
<clipPath id="clip0_210_756">
<rect width="20" height="20" fill="white"/>
</clipPath>
</defs>
</svg>
